<svg xmlns="http://www.w3.org/2000/svg" viewBox="0 0 380.9 436.47"><defs><style>.cls-1{fill:#dcd2e1;}.cls-2{fill:#ad66a6;}.cls-3{fill:none;stroke:#ad66a6;stroke-miterlimit:10;stroke-width:5px;}.cls-4{fill:#fff;}</style></defs><title>mapmap</title><g id="레이어_27" data-name="레이어 27"><path class="cls-1" d="M184.24,436A275.39,275.39,0,0,0,290,483.3q-8.81-142-17.62-284l19.61,284q-9.79-142-19.61-284a282,282,0,0,1-52.78-16.26,282,282,0,0,1-58.07-32.92Z" transform="translate(-44.4 -49.13)"/><path class="cls-1" d="M136,164.66c2.17,12.3,12.82,22.58,22.59,29.51a75.58,75.58,0,0,0,35.83,13.31c3.19.33,3.17-4.67,0-5a70.4,70.4,0,0,1-32-11.74c-9.28-6.28-19.56-15.93-21.57-27.41-.56-3.16-5.38-1.82-4.83,1.33Z" transform="translate(-44.4 -49.13)"/><path class="cls-1" d="M139.85,173.77a88,88,0,0,0,33.09,31.39,86.24,86.24,0,0,0,21.13,8.09c5.17,1.23,12.48,3.59,16.17-1.53,1.89-2.61-2.45-5.11-4.31-2.52-2.14,3-15-1.92-17.83-2.86a82.69,82.69,0,0,1-43.94-35.09c-1.68-2.74-6-.23-4.31,2.52Z" transform="translate(-44.4 -49.13)"/><path class="cls-1" d="M270.82,212.79c3.33.31,6.14-1.87,9.44-1.39,3.65.52,6.7,3.35,9.33,5.72,2.38,2.15,5.93-1.37,3.53-3.53-3-2.7-6.2-5.41-10.09-6.68a12.56,12.56,0,0,0-5.16-.58c-2.45.26-4.56,1.7-7.05,1.46-3.21-.3-3.19,4.7,0,5Z" transform="translate(-44.4 -49.13)"/><path class="cls-1" d="M277.55,210c10,5.58,18.1,13.84,26.42,21.61,2.35,2.2,5.89-1.33,3.53-3.54-8.62-8.05-17-16.6-27.43-22.39-2.81-1.57-5.34,2.75-2.52,4.32Z" transform="translate(-44.4 -49.13)"/><path class="cls-1" d="M284.45,211c4.87,4,8.59,8.91,12.59,13.71a60.92,60.92,0,0,0,6,6.49c1.3,1.17,5.11,3,5.89,4.36l.39-3-.24.23,2.43-.64-.36-.11,1.74,3.07.06-.21c.77-3.12-4.05-4.45-4.83-1.33l-.05.22a2.54,2.54,0,0,0,1.75,3.07l.36.11a2.53,2.53,0,0,0,2.43-.64l.25-.23a2.54,2.54,0,0,0,.39-3c-1.14-1.94-3.52-2.8-5.24-4.17a50.19,50.19,0,0,1-7-7.12c-4.18-5-8-10.16-13.07-14.28-2.47-2-6,1.5-3.53,3.53Z" transform="translate(-44.4 -49.13)"/><path class="cls-1" d="M289.15,218.78c7.88,5.83,13.54,15.38,19.54,23,2,2.52,5.5-1,3.54-3.54-6.34-8.06-12.23-17.64-20.55-23.8-2.59-1.91-5.09,2.42-2.53,4.32Z" transform="translate(-44.4 -49.13)"/><path class="cls-1" d="M291.59,219,306,235.05c2.32,2.58,6,8.16,9.81,4.67,2.39-2.17-1.16-5.69-3.54-3.53,1.15-1,.86-.26-.05-1.7a26.72,26.72,0,0,0-2.68-3l-4.81-5.36-9.63-10.71c-2.16-2.4-5.69,1.14-3.54,3.53Z" transform="translate(-44.4 -49.13)"/><path class="cls-1" d="M311.54,202.5a26.77,26.77,0,0,0,18.55-9.87c2-2.49-1.52-6-3.53-3.53a21.92,21.92,0,0,1-15,8.4c-3.17.31-3.21,5.32,0,5Z" transform="translate(-44.4 -49.13)"/><path class="cls-1" d="M313,204.08c3.91-3.8,10.71-5.34,15.4-8.15,3.53-2.13,10-5.38,11.88-9.28a2.53,2.53,0,0,0-1.49-3.67l-.31-.07a2.56,2.56,0,0,0-3.08,1.75l-.07.23c-.94,3.08,3.89,4.4,4.82,1.32l.07-.22-3.07,1.74.31.07-1.5-3.67c-1.09,2.27-5,4.18-7.12,5.6a78.44,78.44,0,0,1-7.57,4.44c-4,2-8.54,3.2-11.81,6.38-2.31,2.24,1.23,5.78,3.54,3.53Z" transform="translate(-44.4 -49.13)"/><path class="cls-1" d="M313.25,205.82a77,77,0,0,0,32-18c8.68-8.19,17.38-19.37,17.59-31.79.05-3.22-4.95-3.22-5,0-.19,11.47-9.15,22-17.27,29.31A71.85,71.85,0,0,1,311.92,201c-3.09.87-1.78,5.69,1.33,4.82Z" transform="translate(-44.4 -49.13)"/><path class="cls-1" d="M296.29,220.56a50.27,50.27,0,0,1,.21,8.41c-.13,2-1.1,4.75-.06,6.66a3.86,3.86,0,0,0,4.35,1.69c1.95-.54,2.83-2.31,3.46-4,1.1-3-3.73-4.34-4.82-1.33,1.24,1.28,1.82,1.34,1.77.18l.12-1.05c.13-1.22.21-2.45.25-3.68a51.88,51.88,0,0,0-.28-6.83c-.33-3.17-5.33-3.21-5,0Z" transform="translate(-44.4 -49.13)"/><path class="cls-1" d="M278.84,208.67q15,15.78,29.23,32.31c2.1,2.44,5.62-1.11,3.53-3.53q-14.21-16.53-29.22-32.32c-2.23-2.34-5.76,1.2-3.54,3.54Z" transform="translate(-44.4 -49.13)"/><path class="cls-1" d="M279.39,211.72l7.47,2.09c3.11.87,4.43-3.95,1.33-4.82l-7.47-2.09c-3.11-.87-4.43,3.95-1.33,4.82Z" transform="translate(-44.4 -49.13)"/><path class="cls-1" d="M405.73,265a97.56,97.56,0,0,0,3.08,35.1l3.67-2.82c-1.25-.58-1.23-5.29-1.4-6.47q-.6-4.31-1.05-8.62c-.53-5-.89-9.93-1.15-14.91a2.53,2.53,0,0,0-3.76-2.16c-7.22,3.28-13.35,8.24-12.48,16.94.54,5.43,5.73,14.19,12.28,10.76,6.91-3.62,5.53-15.86,3.28-21.75-2.67-7-9.62-8.93-13.69-1.66-3.12,5.57-4.51,15.79-.3,21.1,4.6,5.82,12.6,4.36,15-2.51,2.17-6.31,3.14-17.26-3.15-21.63-6.82-4.74-13.56,4.07-15.24,9.9-2.1,7.26-.06,16.28,6.38,20.76,5.63,3.92,13,2.65,14.46-4.61.79-4,.55-8.71.27-12.74s-1.39-8-4.73-10.45c-7.21-5.27-13.77,2.09-14.67,9.09-.93,7.21-.43,17.34,7.37,20.65,7.26,3.08,12.42-3.44,13.65-9.93,1.35-7.12,1.14-18.93-5.59-23.58-6.35-4.38-13,.72-14.49,7.31-1.87,8.36-.07,21,8.95,24.59,2.69,1.08,6.35,1,8.28-1.48,2.4-3.12,0-7.47-1.74-10.32-1.83-3.09-4.75-7.36-8.25-8.66-4.24-1.58-6,2.31-6.63,5.84-1.66,9.27,3.94,17.47,12.45,20.68,1.81.69,3.57-1.36,3.07-3.07-1.38-4.76-7-12.48-12.92-10-6.79,2.84,1.13,10.42,4.81,12,6.11,2.56,10.11-1.28,7.41-7.45-1.51-3.45-9.4-10.38-12.46-5-2.29,4,2.44,12.86,7.17,12.86,6.65,0,5.73-13.17,5.5-17.29-.29-5.23-1.57-13.93-8.09-15-6.67-1.09-6.16,11.29-5.93,15.29.22,3.67,4.79,16.1,10.27,10.09,2.3-2.52,2.41-7.85,2.34-11.06a31.06,31.06,0,0,0-3.84-14.06c-.81-1.52-3.58-1.75-4.32,0a25.55,25.55,0,0,0-.52,19.9,2.54,2.54,0,0,0,4.57.6c3.85-5.59,2.72-12.17,1.2-18.37-.62-2.5-4.08-2.24-4.82,0a28.93,28.93,0,0,0-1.4,11.89c.17,2,2.71,3.52,4.27,1.77a5.08,5.08,0,0,0,1.66-4.06c.13-3.22-4.87-3.21-5,0l-.2.53,4.27,1.76a25.58,25.58,0,0,1,1.22-10.56h-4.82c1.2,4.9,2.36,10.07-.69,14.51l4.57.6a20.6,20.6,0,0,1,0-16.05H399.5a25.93,25.93,0,0,1,2.89,8.54c.3,2.07.94,6.33-.18,8.17-1.36,2.25-2.07-2.89-2.16-4.2a35.29,35.29,0,0,1,.58-8.34c.27-1.57-.18-3.08,1-1.42a14.3,14.3,0,0,1,1.5,3.44,26,26,0,0,1,1,7.8,33.91,33.91,0,0,1-.58,8.24c-1.11,4.72-2.63-3.38-2.53-3.53l-2.16,1.23c2.11-.27,7.49,3.49,5.59,6.2l2.16-1.24c-3.09.35-4-1.46-6.42-2.63,2.46,1.18,3.83,3.64,4.55,6.12l3.08-3.07a13.53,13.53,0,0,1-8.48-8.73c-.49-1.69-1.07-4.38-.36-6.12.56-1.36-.06-1.4,1.37-1,.63.18,1.63,1.67,2,2.18a25,25,0,0,1,2.94,4.45c.33.64,1.71,2.88,1,3.61-.55.53-3.15-.93-3.61-1.24-3.84-2.61-4.64-7.87-4.75-12.15a22.54,22.54,0,0,1,.31-5.51c.75-3.21,2-5.2,5.3-4.48,4.94,1.07,5.29,7.56,5.45,11.9.12,3.44.21,8.5-2.24,11.27-5.08,5.74-9.17-2.6-9.49-7.1-.25-3.74-.72-10.71,3.42-12.49,3.36-1.44,5.48,2.1,6,5.16a36.94,36.94,0,0,1,.25,6.57c0,3,1,9.15-3.21,9.25-4,.09-7-4.11-8.08-7.56a15.72,15.72,0,0,1,1.19-12c1.1-2,3.2-4.73,5.64-4.1,2.93.76,3.2,5,3.17,7.54,0,3.1-.1,7.86-2.7,9.92-6.14,4.88-6.31-7.32-5.69-10.75a17.33,17.33,0,0,1,1.56-5.3c1.61-2.91,3.66-1.67,4.63.79a20.35,20.35,0,0,1,1.47,6.85c0,1.61.19,6.33-1.28,7.59-.95.82-3.6-.26-4.25-.83a6.86,6.86,0,0,1-1.47-3.07,10.46,10.46,0,0,1,0-5.55c1.31-4.54,5.77-6.48,9.71-8.27l-3.76-2.16c.37,7.16,1,14.3,1.91,21.41.51,3.87,0,11,4.17,12.91a2.54,2.54,0,0,0,3.67-2.83,93.59,93.59,0,0,1-2.9-33.77c.3-3.2-4.7-3.18-5,0Z" transform="translate(-44.4 -49.13)"/><path class="cls-1" d="M382.51,395.39A21,21,0,0,0,370,401.27c-2.19,2.21-5.86,6.87-2.2,9.48,3.05,2.17,8.58-.75,11.27-2.42a23.09,23.09,0,0,0,8.81-10c.63-1.36.23-3.31-1.49-3.67a15.92,15.92,0,0,0-9.62.79c-2.59,1.1-6.55,3.52-6.8,6.7s2.75,4.44,5.51,4.21a10.77,10.77,0,0,0,8-4.84,2.51,2.51,0,0,0-1.49-3.67,12.2,12.2,0,0,0-6.53.47c-3,1.08-1.71,5.91,1.33,4.82a7.11,7.11,0,0,1,3.87-.47l-1.5-3.68c-.89,1.25-3.58,3.33-5.26,2.12l1.15,1.49c-.23-.91,3.92-2.69,4.58-2.9a10.68,10.68,0,0,1,5.44-.22l-1.49-3.67a19,19,0,0,1-5.23,7c-1.82,1.48-6.15,4.47-8.61,3.44l1.49,1.15-.32-.72.25,1.92c.71-4.59,7.35-7.62,11.39-8.14,3.15-.4,3.19-5.4,0-5Z" transform="translate(-44.4 -49.13)"/><path class="cls-1" d="M296.15,314a21.41,21.41,0,0,1,5.75,10c.59,2.28,4.34,2.48,4.82,0a42.9,42.9,0,0,1,3.64-11c1.42-2.87-2.89-5.41-4.31-2.52a47.54,47.54,0,0,0-4.15,12.22h4.82a26.57,26.57,0,0,0-7-12.18c-2.29-2.26-5.83,1.27-3.54,3.54Z" transform="translate(-44.4 -49.13)"/><path class="cls-1" d="M303.5,332.5v3a2.5,2.5,0,0,0,5,0v-3a2.5,2.5,0,0,0-5,0Z" transform="translate(-44.4 -49.13)"/><path class="cls-1" d="M209.78,313.59c6.13,2.92,12.33,1.05,18.28-1.43L225.63,308a30.42,30.42,0,0,1-9.66,6c-2.26.89-4.44,2.05-4.06,4.86.33,2.46,2.36,3.74,4.65,4.08,3.53.53,7.38.1,10.94.1,3.22,0,3.22-5,0-5h-7a23.39,23.39,0,0,0-3.62-.07c-2.08,1.55,2.1.18,1.93.25a34.85,34.85,0,0,0,10.31-6.67c1.75-1.6-.08-5.16-2.43-4.18-4.41,1.83-9.75,4.16-14.43,1.93-2.89-1.38-5.43,2.93-2.52,4.32Z" transform="translate(-44.4 -49.13)"/><path class="cls-1" d="M79.5,207.92c-5.81.41-8.23,5.3-10.43,10.1-3,6.56-5.49,13.24-5,20.58a2.59,2.59,0,0,0,2.5,2.5c3.44.4,4.52-3.86,5.38-6.36a58.29,58.29,0,0,0,3-16.91c.09-2.4-3.57-3.52-4.66-1.27a37.85,37.85,0,0,0-3.77,20.82,2.52,2.52,0,0,0,4.66,1.26,40.08,40.08,0,0,0,6.93-23.95,2.51,2.51,0,0,0-4.91-.66,87.59,87.59,0,0,0-3.52,28.61c.08,1.7,2.15,3.37,3.77,2.16,5.26-4,4.13-14.35,3.87-20.13-.13-2.75-4.16-3.48-4.91-.67a58.25,58.25,0,0,0-1.74,20.86c.31,3.17,5.29,3.22,5,0-.57-6.3-1.39-12.59-2.53-18.82-.52-2.83-1.09-8-5.34-7-4.07,1-3.3,6.07-3.28,9.21,0,2.93-1.15,9.21,3.06,9.93a2.57,2.57,0,0,0,3.08-1.74c1.09-3.77,3.29-11.83.45-15.29-2.06-2.51-5.45-1-6.62,1.5-3.78,8-1.54,21.31,7.71,24.38,2.8.93,7.53,1.08,8.7-2.38,1-3-2.4-7.31-4.66-8.85s-6.1-1.13-6.25,2.32c-.16,3.7,3.73,6,7,5.75a2.55,2.55,0,0,0,2.5-2.5l.18-4.77L75,237.87A20,20,0,0,0,82,246l-.89-3.42-.79,1.52a2.52,2.52,0,0,0,3.42,3.42,44.69,44.69,0,0,0,8.89-6.08c1.55-1.35.38-4.52-1.76-4.27-3.9.45-6,3.14-9.49,4.45-3,1.1-6.23,1.28-5.81,5.33a2.57,2.57,0,0,0,2.5,2.5c5.24.45,10.94-3.37,13.8-7.65,3.25-4.85,3-10.92,2.47-16.48-.22-2.59-4.37-3.65-4.91-.67L86.7,240.1l4.91.67a96,96,0,0,1,.83-14.48c.42-3.1-3.81-4.49-4.82-1.33a27.17,27.17,0,0,0-1.24,11.25,2.51,2.51,0,0,0,4.91.66c2.4-7.6,5.95-28.8-7.09-28.8A2.53,2.53,0,0,0,82,211.83l4.75,8.69L91.1,218a29,29,0,0,0-6.54-6.77c-1.94-1.39-4,.89-3.67,2.82a45.77,45.77,0,0,0,5.81,15.31c1.49,2.51,5.12.8,4.57-1.93q-1.86-9.09-4.53-18l-2.41,3.17c3.8-.35,7.58,8.6,8.58,11.42,2,5.76.45,9.44-3.42,13.87l3.93,3c3.4-6.9,5.46-15.24,3.24-22.85-1.15-3.92-5.72-12.08-10.52-7.61a2.52,2.52,0,0,0,.51,3.93c8.32,3.72,8.07,11.8,3.95,18.7-1.66,2.77,2.66,5.28,4.32,2.52,5.42-9.07,5-20.72-5.75-25.54l.51,3.93c-.41.37,1.94,4.65,2.16,5.4a19.76,19.76,0,0,1,.67,6.17,31.1,31.1,0,0,1-3.41,12.83c-1.18,2.39,2,5.29,3.93,3,5.32-6.08,7.39-11.62,4.42-19.47-1.88-5-6.63-14.94-13.12-14.35a2.53,2.53,0,0,0-2.41,3.16q2.67,8.89,4.52,18L91,226.83a42.38,42.38,0,0,1-5.3-14.12L82,215.53a20.86,20.86,0,0,1,4.75,5c1.88,2.52,5.9.37,4.31-2.53l-4.74-8.68-2.16,3.76c7.75,0,3.33,19.09,2.27,22.48l4.91.66a24,24,0,0,1,1.06-9.92L87.62,225a105.83,105.83,0,0,0-1,15.81c0,2.71,4.4,3.53,4.91.66l2.76-15.49-4.91-.66c.31,3.47.72,7.19-.25,10.59-1.22,4.32-6.21,8.95-11,8.54l2.5,2.5c.07.68,9.88-4.73,10.3-4.78l-1.77-4.27a39.42,39.42,0,0,1-7.88,5.3l3.42,3.42.78-1.52a2.58,2.58,0,0,0-.89-3.42,15.08,15.08,0,0,1-5.28-6.29c-1.13-2.37-4.57-1-4.66,1.26l-.18,4.77,2.5-2.5-1.81-.72-1.75,1.74c-.29.06,5.78,5.11-.48,2a9,9,0,0,1-3.78-4A14.67,14.67,0,0,1,68,231.37c0-1.18,1.35-6,.48-6.28l-1.74-1.75c1.18,3.68.13,8.22-.9,11.78l3.07-1.75c.83.14.72-6.44.6-7.07s-.18-3.73-1.89-2.53c-.27.19.79,4.13.86,4.5,1,5.5,1.69,11,2.19,16.59h5a54.06,54.06,0,0,1,1.56-19.53l-4.91-.66c.11,2.46.15,4.9,0,7.36-.1,2,.3,7.16-1.43,8.45l3.76,2.16A83.32,83.32,0,0,1,78,215.36l-4.91-.67a35.48,35.48,0,0,1-6.25,21.43l4.66,1.26a33.07,33.07,0,0,1,3.09-18.29l-4.66-1.26a54.63,54.63,0,0,1-1.27,10.27c-.22.93-2.31,8-2.08,8l2.5,2.5a31.26,31.26,0,0,1,2.45-13.77c1.2-3.06,3.76-11.61,8-11.91,3.19-.23,3.22-5.23,0-5Z" transform="translate(-44.4 -49.13)"/><path class="cls-1" d="M60.75,262.32A51.44,51.44,0,0,1,67,278.69c.62,3.15,5.44,1.82,4.82-1.33a55.37,55.37,0,0,0-6.71-17.56c-1.63-2.77-6-.26-4.31,2.52Z" transform="translate(-44.4 -49.13)"/><path class="cls-1" d="M121.89,394.6c2.25,3.19.12,6.76-1.56,9.68s2.71,5.32,4.32,2.53c2.57-4.48,4.9-10,1.56-14.73-1.84-2.62-6.17-.12-4.32,2.52Z" transform="translate(-44.4 -49.13)"/><path class="cls-1" d="M124,390.18a9.09,9.09,0,0,1-.51,5.13,2.59,2.59,0,0,0,.89,3.42,2.52,2.52,0,0,0,3.42-.9,15,15,0,0,0,1-9,2.5,2.5,0,0,0-4.82,1.33Z" transform="translate(-44.4 -49.13)"/><path class="cls-1" d="M136.39,385.16c0-.1.15-.46,0-.06s0,0,0,0c0,.13-.42.44-.1.17s-.55.37-.15.13-.19.1-.25.09.58-.11,0,0,0,0,0,0-.71-.16-.17,0a2.51,2.51,0,0,0,3.07-1.75,2.56,2.56,0,0,0-1.74-3.07,4.45,4.45,0,0,0-5.58,3.19,2.5,2.5,0,1,0,4.82,1.33Z" transform="translate(-44.4 -49.13)"/><path class="cls-1" d="M124,379a36.18,36.18,0,0,0-24.46,9.57c-2.39,2.17,1.16,5.7,3.54,3.54A30.85,30.85,0,0,1,124,384c3.22,0,3.23-5,0-5Z" transform="translate(-44.4 -49.13)"/><path class="cls-1" d="M308.22,128.22a13.13,13.13,0,0,1-2.93,1.89l3.77,2.15c0-.25,0-.24,0,0,0-.18.1-.36.13-.54s-.17.24,0,0,.18-.33.29-.48c-.24.35.23-.21.36-.32-.28.23,0,.07.13,0s-.43.13.12-.05l-3.16-2.42.13,2.11a2.5,2.5,0,0,0,5,0l-.13-2.11a2.54,2.54,0,0,0-3.17-2.41,6.77,6.77,0,0,0-4.68,6.28,2.53,2.53,0,0,0,3.76,2.16,16.93,16.93,0,0,0,3.93-2.67,2.5,2.5,0,0,0,0-3.53,2.55,2.55,0,0,0-3.53,0Z" transform="translate(-44.4 -49.13)"/><path class="cls-1" d="M291.94,140.25a4.71,4.71,0,0,0-2.87-5.25c-2.08-.95-4.64-1-6.23.88a3.82,3.82,0,0,0,.78,5.79,3.61,3.61,0,0,0,5.24-2.08c.85-3.11-4-4.43-4.82-1.33a1.77,1.77,0,0,1,1.42-1.12,1.9,1.9,0,0,1,1.33,1.36c0,.34-.27.49-.3.73,0,0-.12.05-.12.08s.54.18.59.2l.25.16s-.06,0-.06-.06a.32.32,0,0,1,0-.09,2,2,0,0,1,0-.6,2.57,2.57,0,0,0,1.75,3.08,2.53,2.53,0,0,0,3.08-1.75Z" transform="translate(-44.4 -49.13)"/></g><g id="레이어_25" data-name="레이어 25"><path class="cls-2" d="M207.82,180.49c15.23,6.95,30.8,13.36,47.13,17.23,7.49,1.77,16.71,4.61,24.29,2.14,8.09-2.64,15.87-7.45,23.56-11.13C336.57,172.6,370.63,157.1,404.39,141c2.9-1.38.37-5.7-2.53-4.31-31.4,15-63.07,29.48-94.51,44.41q-11.55,5.47-23.05,11.06c-5.54,2.69-9.32,4.11-15.46,3.22-4.22-.61-8.41-1.45-12.56-2.43-15.92-3.77-31.09-10-45.94-16.73-2.9-1.33-5.45,3-2.52,4.32Z" transform="translate(-44.4 -49.13)"/><path class="cls-2" d="M47.56,191c30.31-10.67,60.9-20.56,91.32-30.95,3-1,1.73-5.87-1.33-4.82-30.42,10.39-61,20.27-91.32,31-3,1.06-1.72,5.89,1.33,4.82Z" transform="translate(-44.4 -49.13)"/><path class="cls-2" d="M184.85,438.91c5.83,5.23,12.55,9.07,19.11,13.28,7,4.48,13.67,8.75,21.34,12,7.34,3.13,14.91,5.69,22.32,8.66,7.9,3.16,15.8,6.42,24,8.82a100.19,100.19,0,0,0,11.05,2.62c3.31.58,7.73,1.75,11,1.1,3.66-.72,7.86-3.41,11.27-4.91,4.12-1.82,8.24-3.67,12.36-5.52,16.68-7.54,33.24-15.34,49.77-23.18,19-9,37.9-18.05,56.94-26.86,2.92-1.35.38-5.66-2.52-4.32-31.28,14.48-62.25,29.61-93.56,44Q316.53,469.9,305.06,475c-3.68,1.63-7.65,4-11.54,5.06-4.28,1.16-9.63-.48-13.84-1.43-15.27-3.44-29.52-10.39-44.16-15.75-8.31-3-16.62-6.58-24-11.57-7.73-5.25-16.18-9.69-23.17-15.94-2.39-2.14-5.94,1.38-3.53,3.53Z" transform="translate(-44.4 -49.13)"/><path class="cls-2" d="M67.17,475c19.06-6.9,38.26-13.42,57.49-19.84q14-4.68,28-9.32l14.94-5c5-1.68,12-5.79,16.86-2.3,2.61,1.88,5.1-2.45,2.52-4.32-3.54-2.56-6.33-3.08-10.43-1.68q-7.93,2.7-15.88,5.36-15.85,5.32-31.73,10.58c-21.1,7-42.17,14.14-63.08,21.71-3,1.09-1.71,5.92,1.33,4.82Z" transform="translate(-44.4 -49.13)"/><line class="cls-3" x1="2.49" y1="139.49" x2="22.11" y2="423.48"/><line class="cls-3" x1="358.73" y1="89.67" x2="378.34" y2="373.65"/><path class="cls-2" d="M185.5,434.5l-1.78-2.72a2.5,2.5,0,1,0-4.32,2.52l1.79,2.72a2.5,2.5,0,1,0,4.31-2.52Z" transform="translate(-44.4 -49.13)"/><path class="cls-2" d="M174.88,346.4l6.93,89.6c.25,3.19,5.25,3.22,5,0l-6.93-89.6c-.24-3.18-5.25-3.21-5,0Z" transform="translate(-44.4 -49.13)"/><path class="cls-2" d="M271.23,200.34q.63,63.74,5.54,127.31c.25,3.18,5.25,3.21,5,0q-4.9-63.56-5.54-127.31c0-3.22-5-3.22-5,0Z" transform="translate(-44.4 -49.13)"/><path class="cls-2" d="M285.17,358.94l51.09-20.17c3-1.17,1.67-6-1.33-4.83l-51.08,20.18c-3,1.16-1.67,6,1.32,4.82Z" transform="translate(-44.4 -49.13)"/><path class="cls-2" d="M276,319v1a2.5,2.5,0,0,0,5,0v-1a2.5,2.5,0,0,0-5,0Z" transform="translate(-44.4 -49.13)"/><path class="cls-2" d="M260.91,293.48q.52,21.64,1.74,43.26c.25,4.49-.6,9.54,3.16,12.59,4.7,3.8,10.75,6.35,16.36,8.47,3,1.14,4.31-3.7,1.33-4.82-4.14-1.57-11.48-4-14.51-7.53-1.6-1.88-1.19-6.05-1.34-8.71-.17-2.94-.32-5.89-.47-8.84q-.85-17.2-1.27-34.42c-.08-3.21-5.08-3.23-5,0Z" transform="translate(-44.4 -49.13)"/><path class="cls-2" d="M280.23,349.48l1.58,21c.24,3.19,5.24,3.22,5,0l-1.58-21c-.23-3.19-5.24-3.21-5,0Z" transform="translate(-44.4 -49.13)"/><path class="cls-2" d="M329.74,174.29c3.52,7.27,12.39,10,19.8,7.37a19.91,19.91,0,0,0,13-18.66c0-3.22-5-3.23-5,0a14.87,14.87,0,0,1-9.32,13.84c-5.38,2-11.58.23-14.15-5.08-1.4-2.89-5.71-.36-4.32,2.53Z" transform="translate(-44.4 -49.13)"/><path class="cls-2" d="M341.9,170.73a9.58,9.58,0,0,0,11.91-6.1c1-3-3.79-4.36-4.82-1.33a4.52,4.52,0,0,1-5.76,2.61c-3.05-1-4.37,3.8-1.33,4.82Z" transform="translate(-44.4 -49.13)"/><path class="cls-2" d="M409,259.68c-15.63-1.37-23.11,12.95-22.68,26.74.43,14,12.91,23.81,26.58,19.42,3.05-1,1.74-5.82-1.33-4.83-11.56,3.72-20.54-5-20.25-16.42.27-10.67,5.57-21,17.68-19.91,3.21.28,3.19-4.72,0-5Z" transform="translate(-44.4 -49.13)"/><path class="cls-2" d="M399.5,283.5c3.22,0,3.22-5,0-5s-3.22,5,0,5Z" transform="translate(-44.4 -49.13)"/><path class="cls-2" d="M410,286.49c0-.18-.21,0-.29.06l-3.08-1.74,2.27,7.26c.95,3.06,5.78,1.75,4.82-1.33l-2.27-7.26a2.52,2.52,0,0,0-3.07-1.75,4.79,4.79,0,0,0-3.38,4.76c.17,3.2,5.17,3.22,5,0Z" transform="translate(-44.4 -49.13)"/><path class="cls-2" d="M399,284.5c3.22,0,3.22-5,0-5s-3.22,5,0,5Z" transform="translate(-44.4 -49.13)"/><path class="cls-2" d="M413.5,275.5V275a2.5,2.5,0,0,0-5,0v.5a2.5,2.5,0,0,0,5,0Z" transform="translate(-44.4 -49.13)"/><path class="cls-2" d="M397.3,397.28c-2.12-6.25-6.67-16.34-15-13.28-3,1.1-1.7,5.93,1.33,4.82,5.05-1.84,7.69,6.25,8.89,9.79,1,3,5.85,1.73,4.82-1.33Z" transform="translate(-44.4 -49.13)"/><path class="cls-2" d="M354.8,397.77c-2.94,4-3,8.3-1.46,12.9.78,2.39,2.12,4.74,2.62,7.21.6,2.91-.78,3.66-1.78,6.13a6.52,6.52,0,0,0,2.93,8.56c4.33,2.3,10.45-.59,14.79-1.71,10.67-2.76,21.33-6.24,30.18-13,3.32-2.55,6.94-5.56,5.66-10.25s-6.05-5.28-10.23-4.55c-3.17.55-1.83,5.37,1.33,4.82,3.66-.64,5.12,1.24,2.79,3.91a25.32,25.32,0,0,1-5.13,4,59.75,59.75,0,0,1-8.07,4.44c-6.69,3-13.87,4.89-21,6.67-1.53.38-4,1.52-5.53,1.36l-3.35-1.75a8.64,8.64,0,0,1,1.59-2.57,5.78,5.78,0,0,0,1.21-4.45c-.64-6.56-6.88-12.84-2.26-19.13,1.9-2.6-2.44-5.09-4.32-2.52Z" transform="translate(-44.4 -49.13)"/><path class="cls-2" d="M382.81,384.5c-7.46,1.9-14.75,4.39-21.35,8.41-2.75,1.67-.24,6,2.52,4.31,6.26-3.81,13.09-6.1,20.16-7.9,3.12-.8,1.8-5.62-1.33-4.82Z" transform="translate(-44.4 -49.13)"/><path class="cls-2" d="M371.67,421.66c-1.91,2.2-3.71,4.73-3.44,7.79.24,2.77,2.22,5.38,5.13,5.6,6,.46,9.09-7.77,5.8-12.15a5.58,5.58,0,0,0-7.5-1.29c-2.82,1.71-3.61,5.1-3.28,8.19s2.16,5.84,5.63,5c3-.73,4.79-4.33,5.5-7.07.81-3.11-.72-7.29-4.42-7.46a4.33,4.33,0,0,0-4,6.32c1.47,2.87,5.78.34,4.32-2.52q.45,1.24-.81,1.14l.11.2c-.21.44-.12,1.38-.36,1.95a12.34,12.34,0,0,1-.88,1.74c-.36.6-.75.62-.3,1s.11-1.27.11-1.65a4,4,0,0,1,.35-1.9c.27-.46.94-1.18,1.49-.78,1.06.75.12,4.53-1.26,4.3-2.17-.36.85-4.31,1.34-4.89,2.1-2.42-1.42-6-3.53-3.54Z" transform="translate(-44.4 -49.13)"/><path class="cls-2" d="M393.53,415.1c-3.52-2.67-8,1.67-6.75,5.42,1.35,4.1,6.63,5,9.81,2.54a6.18,6.18,0,0,0,0-9.72,5.85,5.85,0,0,0-9,3.1c-.93,3.08,3.89,4.4,4.82,1.33.39-1.29,2.11-.16,1.48,1a1.64,1.64,0,0,1-1.81.65c-.16-.07-.38-.37-.5-.4a.21.21,0,0,1-.05-.13c0-.14,0-.08,0,.16.05,0-.22.33-.09.25-.17.1-1.06-.37-.42.12a2.51,2.51,0,0,0,3.42-.9,2.55,2.55,0,0,0-.89-3.42Z" transform="translate(-44.4 -49.13)"/><path class="cls-2" d="M358.92,401.56c0-1.08,3.43-2.66,4.23-3.18q2.7-1.77,5.43-3.48c2.72-1.72.21-6-2.52-4.32s-5.57,3.53-8.3,5.38c-2.05,1.38-3.82,2.94-3.84,5.6,0,3.21,5,3.22,5,0Z" transform="translate(-44.4 -49.13)"/><path class="cls-2" d="M391.92,397.23l3.75,8.11a2.52,2.52,0,0,0,3.42.9,2.55,2.55,0,0,0,.89-3.42l-3.74-8.12a2.52,2.52,0,0,0-3.42-.89,2.55,2.55,0,0,0-.9,3.42Z" transform="translate(-44.4 -49.13)"/><path class="cls-2" d="M388.2,418.58c-2.41,4,2.39,7.36,6.05,6.78a7.86,7.86,0,0,0,6.56-7.81c-.09-3.21-5.09-3.22-5,0a2.74,2.74,0,0,1-1.4,2.53,2.25,2.25,0,0,1-1.32.4,1.19,1.19,0,0,0-.32,0,.55.55,0,0,1-.22-.14c-.24-.26-.25,0,0,.79,1.66-2.76-2.66-5.28-4.31-2.52Z" transform="translate(-44.4 -49.13)"/><path class="cls-2" d="M380.06,392.91c-5.21,2.24-16.65,5.4-16.64,12.61,0,2.85,2.06,5.84,4.24,7.57,2.89,2.29,5.85.47,8.86-.72,6-2.37,13.85-4,12.79-12-.35-2.67-1.11-6.26-4-7.19-3.23-1-7.89.53-10.87,1.7s-1.67,6,1.33,4.82a20.09,20.09,0,0,1,6.35-1.67c2-.06,1.84.4,2.18,2.45.77,4.6-6.43,6.05-9.76,7.36-1.36.54-2.82,1.66-4.2.92q-2.35-1.83-1-4.84a13.93,13.93,0,0,1,2.37-1.5,106.84,106.84,0,0,1,10.93-5.16c3-1.26.4-5.57-2.53-4.32Z" transform="translate(-44.4 -49.13)"/><path class="cls-2" d="M307.62,414.74q-9.47,32.79-19.8,65.33c-1,3.07,3.85,4.39,4.83,1.33q10.32-32.53,19.8-65.33c.89-3.1-3.93-4.42-4.83-1.33Z" transform="translate(-44.4 -49.13)"/><path class="cls-2" d="M324.28,354.24q-5.43,20.67-11.19,41.26c-.87,3.1,4,4.43,4.82,1.33q5.76-20.59,11.19-41.26c.81-3.12-4-4.45-4.82-1.33Z" transform="translate(-44.4 -49.13)"/><path class="cls-2" d="M339.72,437.55a153.37,153.37,0,0,0,15.54-7.39c2.83-1.55.31-5.87-2.52-4.32a141,141,0,0,1-14.35,6.89c-2.93,1.2-1.65,6,1.33,4.82Z" transform="translate(-44.4 -49.13)"/><path class="cls-2" d="M404.69,412a109.32,109.32,0,0,0,15.07-6.32c2.87-1.46.34-5.78-2.52-4.32a99.8,99.8,0,0,1-13.88,5.82c-3,1-1.74,5.84,1.33,4.82Z" transform="translate(-44.4 -49.13)"/><path class="cls-2" d="M335.45,436.93q-4.18,14.86-8.63,29.65c-.83,2.77,3.1,4.3,4.57,1.93l.78-1.26c1.7-2.74-2.63-5.25-4.32-2.52l-.78,1.26,4.57,1.92q4.46-14.79,8.63-29.65c.87-3.1-3.95-4.42-4.82-1.33Z" transform="translate(-44.4 -49.13)"/><path class="cls-2" d="M230.73,302.26A100.1,100.1,0,0,0,203,297.07c-3.55-.14-15.8-.94-12.18,6.45,1.43,2.92,5.3,3.61,8.11,4.38a88.59,88.59,0,0,0,13.22,2.52,84.91,84.91,0,0,0,14.61.43c2.67-.16,6.61.24,8.52-2a2.59,2.59,0,0,0,.39-3,3.17,3.17,0,0,0-2.83-1.66,2.38,2.38,0,0,0-2.16,1.24l-.13.3c-1.27,2.92,3,5.47,4.31,2.52l.13-.3-2.15,1.24.46.05L231.13,308l.22.38.39-3c-1,1.11-7.16.65-8.64.67q-4.12.06-8.23-.29A87.55,87.55,0,0,1,196.74,302c-1.61-.49-.63,0,.72,0,1.54,0,3.07,0,4.61,0q4.14.13,8.27.61a97.33,97.33,0,0,1,19.06,4.43c3.06,1,4.37-3.81,1.33-4.82Z" transform="translate(-44.4 -49.13)"/><path class="cls-2" d="M188.71,302.55c-.61,7-.66,14.4,4.58,19.82,5,5.19,12.41,6.76,19.37,6.76,5.93,0,14.54.24,19.07-4.36,4.28-4.34,6.14-12.53,3.38-18-1.46-2.87-5.77-.34-4.32,2.52,2.61,5.15-1.73,12.72-6.85,13.93a48.31,48.31,0,0,1-14.74.76c-4.86-.46-9.9-2-13-6-3.48-4.37-2.89-10.23-2.44-15.45.28-3.21-4.73-3.19-5,0Z" transform="translate(-44.4 -49.13)"/><path class="cls-2" d="M210.18,286.14c-1.5,2.73-4.3,6.18-4.26,9.45a6.31,6.31,0,0,0,1.16,3.19c1.51,2.53,1.66,3.63.8,6.55-.5,1.71,1.27,3.77,3.08,3.08l1.22-.47c3-1.13,1.69-6-1.33-4.82l-1.22.47,3.07,3.07c.86-2.92,1.5-6.14-.1-8.93-.91-1.58-1.72-1.82-1-3.76a39.26,39.26,0,0,1,2.93-5.3c1.55-2.82-2.76-5.35-4.32-2.53Z" transform="translate(-44.4 -49.13)"/><path class="cls-2" d="M215.94,286.33c-1.54,2.77-3.07,5.82-2.92,9.08a11.44,11.44,0,0,0,.92,3.45c.48,1.29,1,2.24.71,3.74-.2.93-.65,1.78-.84,2.74-.62,3.14,4.2,4.49,4.83,1.33.54-2.77,2.09-4.95,1-7.81-.73-1.89-1.83-2.81-1.5-5.06a15.61,15.61,0,0,1,2.14-4.94c1.56-2.82-2.76-5.34-4.32-2.53Z" transform="translate(-44.4 -49.13)"/><path class="cls-2" d="M227.38,289c-2.21-2.6-6.22-1.35-7.48,1.5-.78,1.75-.51,3.57-.28,5.39.33,2.7.68,5.39,1,8.08l2.5-2.5-2.15.08c-3.21.12-3.22,5.12,0,5l2.15-.08c1.22-.05,2.67-1.12,2.5-2.5l-.78-6.06c-.19-1.49,0-4.19-1-5.38,2.08,2.46,5.61-1.1,3.53-3.53Z" transform="translate(-44.4 -49.13)"/><path class="cls-2" d="M211.26,290.16l29.58,6c3.14.64,4.48-4.18,1.32-4.82l-29.57-6c-3.14-.64-4.48,4.18-1.33,4.82Z" transform="translate(-44.4 -49.13)"/><path class="cls-2" d="M221.82,286.47l22.55,3.72c3.15.52,4.5-4.29,1.33-4.82l-22.55-3.72c-3.14-.52-4.5,4.3-1.33,4.82Z" transform="translate(-44.4 -49.13)"/><path class="cls-2" d="M219.43,287.17c.1-.29,0-.07,0,.09.19-.43-.21.13,0,0a2,2,0,0,0,.25-.26c.16-.2-.43.23,0,0s0-.06-.1,0a1.75,1.75,0,0,1,.35-.11l-.3,0,.27,0c.28.13-.58-.13,0,0a2.5,2.5,0,1,0,1.33-4.82,5.57,5.57,0,0,0-6.55,3.73,2.53,2.53,0,0,0,1.75,3.08,2.56,2.56,0,0,0,3.07-1.75Z" transform="translate(-44.4 -49.13)"/><path class="cls-2" d="M224.81,290.65s.14-.5.13-.51-.26.5,0,0c.05-.1.13-.31.24-.37-.2.25-.24.3-.12.16l.19-.18c.31-.33-.27.14,0,0,.05,0,.33-.25.38-.22l-.2.08.25-.08a3.18,3.18,0,0,1,.52-.1,2.52,2.52,0,0,0,1.75-3.08,2.58,2.58,0,0,0-3.08-1.74,6.06,6.06,0,0,0-4.85,4.67,2.5,2.5,0,0,0,4.82,1.33Z" transform="translate(-44.4 -49.13)"/><path class="cls-2" d="M270.41,367.34,284,372.87c3,1.21,4.28-3.63,1.33-4.83l-13.58-5.52c-3-1.21-4.28,3.63-1.33,4.82Z" transform="translate(-44.4 -49.13)"/><path class="cls-2" d="M181.15,331.06l73.09,29.71c3,1.21,4.28-3.62,1.33-4.82l-73.09-29.72c-3-1.21-4.28,3.63-1.33,4.83Z" transform="translate(-44.4 -49.13)"/><path class="cls-2" d="M178.47,407.55l77.21,31.38c3,1.21,4.27-3.62,1.33-4.82L179.8,402.72c-3-1.21-4.28,3.63-1.33,4.83Z" transform="translate(-44.4 -49.13)"/><path class="cls-2" d="M181.4,421.7l72.84,30.54c3,1.24,4.26-3.59,1.33-4.82l-72.84-30.55c-3-1.24-4.26,3.6-1.33,4.83Z" transform="translate(-44.4 -49.13)"/><path class="cls-2" d="M286.35,373a397.93,397.93,0,0,0,40.06-15.93l-2.53-4.32-1.16.57c-2.89,1.41-.36,5.72,2.53,4.32l1.16-.57c2.91-1.42.36-5.65-2.53-4.32A386.75,386.75,0,0,1,285,368.17c-3,1-1.73,5.85,1.33,4.82Z" transform="translate(-44.4 -49.13)"/><path class="cls-2" d="M306.7,313.18c-.91-2.6,1.89-5.36,4.2-3.07,1.88,1.86.84,3.89-.3,5.71-2.2,3.52-5,6.8-7.43,10.15-1.9,2.6,2.43,5.09,4.32,2.52,4.26-5.8,14.66-15.75,6.18-22.58-5.91-4.76-14.23,1.67-11.79,8.6,1.06,3,5.9,1.72,4.82-1.33Z" transform="translate(-44.4 -49.13)"/><path class="cls-2" d="M306.18,316.53c1.36-3.48-.75-7.17-4.1-8.49-2.77-1.08-7.39-1.2-9.37,1.45-2.21,3-.56,7.74,1.28,10.44,2.64,3.86,6.88,6,11,7.84,2.91,1.33,5.45-3,2.53-4.31-3.43-1.57-7.3-3.2-9.47-6.46-.76-1.13-2.07-3.82-.84-4.53,1.75-1,4.94.71,4.15,2.73-1.18,3,3.65,4.3,4.82,1.33Z" transform="translate(-44.4 -49.13)"/><path class="cls-2" d="M302.54,330.64a5.61,5.61,0,0,0-.67,7.46,6,6,0,0,0,7.61,1.48,6.78,6.78,0,0,0,3.21-7.39c-.35-1.79-1.22-3.21-3.1-3.56a9.09,9.09,0,0,0-4.79.38,2.57,2.57,0,0,0-1.74,3.08,2.52,2.52,0,0,0,3.07,1.74,4.55,4.55,0,0,1,2.89-.2l-1.49-1.15c.59,1.11.26,2.67-.79,2.86a1.21,1.21,0,0,1-.84-.1c.17.09-.14-.35-.06-.13-.14-.4-.2-.57.24-.94a2.5,2.5,0,1,0-3.54-3.53Z" transform="translate(-44.4 -49.13)"/><path class="cls-2" d="M49.5,223.5c3.22,0,3.22-5,0-5s-3.22,5,0,5Z" transform="translate(-44.4 -49.13)"/><path class="cls-2" d="M49.71,224.53l19.51-7.47c3-1.14,1.69-6-1.33-4.82l-19.51,7.47c-3,1.14-1.68,6,1.33,4.82Z" transform="translate(-44.4 -49.13)"/><path class="cls-2" d="M94.15,209.86q12.6-3.42,24.92-7.72c3-1.06,1.72-5.89-1.33-4.82q-12.33,4.31-24.92,7.72c-3.1.84-1.78,5.67,1.33,4.82Z" transform="translate(-44.4 -49.13)"/><path class="cls-2" d="M112.5,166l3.37,32.11a2.55,2.55,0,0,0,2.5,2.5,3.24,3.24,0,0,0,2.83-1.24c2.08-2.43-1.44-6-3.54-3.53l.71-.23,2.5,2.5L117.5,166c-.33-3.17-5.33-3.2-5,0Z" transform="translate(-44.4 -49.13)"/><path class="cls-2" d="M52.11,248.2a131.41,131.41,0,0,0,13.19-3.93c3-1.07,1.71-5.9-1.33-4.82a132,132,0,0,1-13.18,3.93c-3.13.76-1.81,5.58,1.32,4.82Z" transform="translate(-44.4 -49.13)"/><path class="cls-2" d="M101.66,235.39a133.41,133.41,0,0,0,23.09-7.28c2.93-1.22,1.64-6.06-1.33-4.82a133.41,133.41,0,0,1-23.09,7.28c-3.14.69-1.81,5.51,1.33,4.82Z" transform="translate(-44.4 -49.13)"/><path class="cls-2" d="M120.79,227.52l8.6,76.24c.36,3.13,4.9,3.29,5,0l.11-3.26c.1-3.21-4.9-3.21-5,0l-.11,3.26h5l-8.6-76.24c-.36-3.16-5.36-3.19-5,0Z" transform="translate(-44.4 -49.13)"/><path class="cls-2" d="M94.68,316.45l34.59-9.65c3.1-.86,1.78-5.68-1.33-4.82l-34.59,9.65c-3.1.86-1.78,5.69,1.33,4.82Z" transform="translate(-44.4 -49.13)"/><path class="cls-2" d="M57.37,303.78c11.89-2.93,29.37-3.9,34.26,10.44,1,3,5.86,1.73,4.82-1.32C90.59,295.69,70.89,295.3,56,299c-3.12.77-1.8,5.59,1.33,4.82Z" transform="translate(-44.4 -49.13)"/><path class="cls-2" d="M58.51,318.09c14-1.32,26.49,9.69,24.91,24.18C82.11,354.36,71.17,363.74,59,362.8c-3.21-.25-3.19,4.75,0,5,15,1.16,28.31-11.13,29.47-26,1.32-16.86-13.51-30.3-30-28.75-3.18.3-3.21,5.3,0,5Z" transform="translate(-44.4 -49.13)"/><path class="cls-2" d="M101.2,331.72q8.46-2.62,16.89-5.39c5.5-1.81,11.12-4.31,16.9-5,3.15-.38,3.19-5.39,0-5-5.72.68-11,2.78-16.45,4.59q-9.32,3.09-18.67,6c-3.07,1-1.76,5.77,1.33,4.82Z" transform="translate(-44.4 -49.13)"/><path class="cls-2" d="M97.17,328.77c2.71,12.7,3.58,24.92-4,36.22A37,37,0,0,1,62.64,381c-2.72,0-3.51,4.36-.66,4.91l2.36.46c3.14.61,4.49-4.21,1.32-4.82l-2.35-.46L62.64,386a42.11,42.11,0,0,0,34-17.2c9.09-12.68,8.49-26.82,5.38-41.4-.67-3.14-5.49-1.81-4.82,1.33Z" transform="translate(-44.4 -49.13)"/><path class="cls-2" d="M132.05,319.4q1.38,13.71,3.3,27.35a2.48,2.48,0,0,0,2.41,1.83l.18,0a2.57,2.57,0,0,0,2.5-2.5v-.44c.06-3.22-4.94-3.22-5,0v.44l2.5-2.5-.18,0,2.41,1.84q-1.81-13-3.12-26c-.31-3.18-5.32-3.21-5,0Z" transform="translate(-44.4 -49.13)"/><path class="cls-2" d="M66,438.6c13-1.19,26-6.82,38.38-10.71l41-12.85c3.06-1,1.75-5.78-1.33-4.82l-39,12.25-19,6c-6.52,2-13.07,4.54-19.91,5.16-3.18.29-3.21,5.3,0,5Z" transform="translate(-44.4 -49.13)"/><path class="cls-2" d="M177.18,332.45l4-1a2.5,2.5,0,1,0-1.33-4.82l-4,1a2.5,2.5,0,1,0,1.33,4.82Z" transform="translate(-44.4 -49.13)"/><path class="cls-2" d="M253,367l2.08,68.5c.1,3.21,5.1,3.22,5,0L258,367c-.1-3.21-5.1-3.22-5,0Z" transform="translate(-44.4 -49.13)"/><path class="cls-2" d="M252.73,358.34a44.7,44.7,0,0,0,.5,8.8,2.5,2.5,0,0,0,3.07,1.75,2.57,2.57,0,0,0,1.75-3.08,38.06,38.06,0,0,1-.32-7.47c.15-3.22-4.85-3.21-5,0Z" transform="translate(-44.4 -49.13)"/><path class="cls-2" d="M252.37,451.2c1.65,2.74.74,7.95.84,11.07l.36,10.94a2.52,2.52,0,0,0,4.65,1.26A4.42,4.42,0,0,0,259,472c.19-3.22-4.81-3.21-5,0l-.05-.06,4.66,1.27-.47-14.59c-.11-3.32.36-7-1.41-9.94-1.66-2.76-6-.25-4.32,2.52Z" transform="translate(-44.4 -49.13)"/><path class="cls-2" d="M234,378.06c-5.09-.2-9.27,1-10.56,6.31-.52,2.15-1.9,3.4-2.63,5.46a12.15,12.15,0,0,0-.36,3,4.59,4.59,0,0,1-.31,2.94l-1,.48c-1.59,1.8-3.14,2.37-3.94,4.87a8.36,8.36,0,0,0,.49,6.32c2.34,4.7,8.65,6.76,13.4,7.63,10.83,2,22.41-7.41,23.49-18.38,1-9.59-11.2-20.52-20.64-18.5-3.15.67-1.82,5.49,1.33,4.82,3.53-.76,8,2.73,10.5,5,3,2.68,4.65,6.05,3.49,10.11a18.72,18.72,0,0,1-5.91,8.59c-4.37,3.86-8.93,4.44-14.49,2.66-4.14-1.33-10.11-4.45-4.68-9,1.6-1.35,2.69-1.58,3.25-3.83a22.17,22.17,0,0,0,.1-3c.22-1.83,1.09-2.84,1.87-4.34.37-.73.63-1.52,1-2.25a8.52,8.52,0,0,0,.1-1.43,5.4,5.4,0,0,1,5.56-2.42c3.22.13,3.21-4.87,0-5Z" transform="translate(-44.4 -49.13)"/><path class="cls-2" d="M236.88,387.66a8.53,8.53,0,0,0-10.23,5.66c-1.25,4.38,1.9,9,6.21,10,4.59,1.07,9.13-2.37,10.28-6.76,1.25-4.77-2.56-9.37-7.51-8.33-3.14.67-1.81,5.49,1.33,4.83,2.4-.51,1,3.29.34,4.08A3.23,3.23,0,0,1,233,398c-3.26-2-.89-6.41,2.52-5.53,3.12.79,4.45-4,1.33-4.82Z" transform="translate(-44.4 -49.13)"/><path class="cls-2" d="M171.9,360.15c.14-3.41,4.31-4.72,7-5.63,3-1,1.73-5.86-1.33-4.82-5,1.73-10.38,4.41-10.63,10.45-.13,3.22,4.87,3.22,5,0Z" transform="translate(-44.4 -49.13)"/><path class="cls-2" d="M176.89,355.92a36.84,36.84,0,0,1,5.64,4.55c2.29,2.26,5.83-1.27,3.53-3.53a43.15,43.15,0,0,0-6.64-5.34c-2.71-1.76-5.21,2.56-2.53,4.32Z" transform="translate(-44.4 -49.13)"/><path class="cls-2" d="M188.2,360.34c2.13-5.61,9.37-2.91,13-.76,2.76,1.65,5.28-2.67,2.52-4.32-6.83-4.09-16.9-5.18-20.31,3.75-1.14,3,3.69,4.31,4.83,1.33Z" transform="translate(-44.4 -49.13)"/><path class="cls-2" d="M200.5,358v25.5c0,3.22,5,3.22,5,0V358c0-3.22-5-3.22-5,0Z" transform="translate(-44.4 -49.13)"/><path class="cls-2" d="M191.91,384.43a10.61,10.61,0,0,1,11,1c2.65,1.84,5.15-2.49,2.53-4.32a15.69,15.69,0,0,0-16.05-1c-2.88,1.43-.35,5.74,2.53,4.32Z" transform="translate(-44.4 -49.13)"/><path class="cls-2" d="M168,358a153.36,153.36,0,0,0,.71,20.67c.35,3.3,0,7.85,4.11,8.24,3.2.3,3.18-4.7,0-5l-.61-.06,2.16,1.24c-1.55-3.1-1.1-8.94-1.27-12.28-.22-4.27-.23-8.54-.1-12.81.1-3.22-4.9-3.22-5,0Z" transform="translate(-44.4 -49.13)"/><path class="cls-2" d="M176.73,385.71a4.09,4.09,0,0,1,5.57-3.21c3,1.14,4.31-3.69,1.33-4.83a9.07,9.07,0,0,0-11.72,6.71c-.53,3.14,4.29,4.5,4.82,1.33Z" transform="translate(-44.4 -49.13)"/><path class="cls-2" d="M181.49,382.07a10.1,10.1,0,0,1,6.69,3.74c2.08,2.46,5.61-1.09,3.54-3.54a15.13,15.13,0,0,0-10.23-5.2,2.53,2.53,0,0,0-2.5,2.5,2.56,2.56,0,0,0,2.5,2.5Z" transform="translate(-44.4 -49.13)"/><path class="cls-2" d="M184,360.5a20.66,20.66,0,0,0,.5,7.18c.76,3.12,5.58,1.8,4.82-1.33a16.92,16.92,0,0,1-.32-5.85,2.53,2.53,0,0,0-2.5-2.5,2.55,2.55,0,0,0-2.5,2.5Z" transform="translate(-44.4 -49.13)"/><path class="cls-2" d="M58.28,260.1l7,20.6a2.53,2.53,0,0,0,3.07,1.75A22.19,22.19,0,0,1,77,281c3.22.07,3.22-4.93,0-5a26.13,26.13,0,0,0-10,1.65l3.08,1.75-7-20.6c-1-3-5.86-1.73-4.82,1.33Z" transform="translate(-44.4 -49.13)"/><path class="cls-2" d="M59.65,259.9a16,16,0,0,0,8.61-.11l-2.82-1.15,5.74,13c1.19,2.69,1.9,6.67,4.85,7.86,1.33.53,2.65-.6,3.08-1.75l.12-.32c.5-1.35-.58-2.63-1.75-3.08l-.23-.08c-3-1.15-4.31,3.68-1.33,4.82l.23.09-1.74-3.08-.12.32,3.07-1.74c1.12,1,1.21.73.25-.78l-1.21-2.73-2.11-4.79-4.53-10.24A2.53,2.53,0,0,0,66.93,255a10.94,10.94,0,0,1-6,.11c-3.12-.78-4.46,4-1.33,4.82Z" transform="translate(-44.4 -49.13)"/><path class="cls-2" d="M63.76,258.31,64,258c-.2.4-.1.12.06,0s-.21.29,0,0,.54-.15,0,0l.38-.11c-.16.06-.38.11-.08,0h.2l-.18,0a3.71,3.71,0,0,0,.47.16,2.51,2.51,0,0,0,3.07-1.75,2.57,2.57,0,0,0-1.74-3.08,5.58,5.58,0,0,0-6.69,2.61,2.5,2.5,0,0,0,4.32,2.53Z" transform="translate(-44.4 -49.13)"/><path class="cls-2" d="M62.34,256.08c-.08-.13.12.72-.19.56a6.08,6.08,0,0,1,1.12-.28c.33,0,1.41.17,1.66,0s-.58-.82-.24-1.27a2.51,2.51,0,0,0,.9,3.42,2.56,2.56,0,0,0,3.42-.9,3.87,3.87,0,0,0-.57-4.89c-1.34-1.35-3.38-1.46-5.17-1.36a6.19,6.19,0,0,0-5,2.31,4.34,4.34,0,0,0-.2,4.93,2.56,2.56,0,0,0,3.42.9,2.52,2.52,0,0,0,.89-3.42Z" transform="translate(-44.4 -49.13)"/><path class="cls-2" d="M66.19,282.36a34.34,34.34,0,0,0,9.06,9.28c2.64,1.85,5.14-2.48,2.52-4.32a27.93,27.93,0,0,1-7.26-7.48c-1.77-2.68-6.1-.17-4.32,2.52Z" transform="translate(-44.4 -49.13)"/><path class="cls-2" d="M75.53,280l1.08,10c.34,3.16,5.35,3.2,5,0l-1.08-10c-.34-3.17-5.34-3.2-5,0Z" transform="translate(-44.4 -49.13)"/><path class="cls-2" d="M74.52,289.68a11.12,11.12,0,0,0,2.73,5.07,2.5,2.5,0,0,0,3.53,0,2.54,2.54,0,0,0,0-3.53c-.11-.12-.23-.25-.33-.38.12.18.1.15-.07-.09a8.68,8.68,0,0,1-.52-.87c-.08-.15-.15-.3-.22-.45.09.21.08.17,0-.11s-.2-.64-.27-1a2.5,2.5,0,1,0-4.82,1.33Z" transform="translate(-44.4 -49.13)"/><path class="cls-2" d="M76.5,290c3.22,0,3.22-5,0-5s-3.22,5,0,5Z" transform="translate(-44.4 -49.13)"/><path class="cls-2" d="M197.36,190.87c3.11,6.45,10.94,2.87,16.38,6.29L212.5,195v3l1.84-2.41c-3.58,1.46-8,4.06-9.4,7.88-1.78,4.71,1.16,9.68,1,14.45l3.76-2.16-1.08.06L207.34,218l-1.35.6,3.67-2.82c-3.9-2-7.34-4.7-11-7.13-2.1-1.39-4-2.66-6.58-2.52-5.29.28-10,4.42-14.4,6.87l3.76,2.16c-.16-5.54,3-10.5,1.09-15.95-1.57-4.53-5.26-8-7.31-12.3-1.38-2.9-5.69-.37-4.31,2.53,1.82,3.84,5,6.93,6.66,10.85,1.18,2.85.21,4.15-.55,7a27.73,27.73,0,0,0-.58,7.87,2.53,2.53,0,0,0,3.77,2.15c3.35-1.85,7.61-5.85,11.54-6.1,2.61-.16,5,2.17,7.06,3.62a75.14,75.14,0,0,0,8.32,5.26,2.53,2.53,0,0,0,3.67-2.82c-.67-2.37-3.11-5.36-5.87-3.67-3.44,2.09.12,5.32,2.2,6.49a2.52,2.52,0,0,0,3.76-2.15,32.71,32.71,0,0,0-1-7.75c-1-4.87,1.28-7.92,5.79-9.76A2.61,2.61,0,0,0,217.5,198c0-4-.29-5.26-4.34-6.76-3-1.11-10.16-.15-11.48-2.9s-5.72-.36-4.32,2.53Z" transform="translate(-44.4 -49.13)"/><path class="cls-2" d="M174.88,190.11c4.11.5,7.56,2.17,11.78,1.3A2.54,2.54,0,0,0,188.5,189c-.07.22,0,.15.14-.21,1.77-2.7-2.56-5.21-4.31-2.52a5.24,5.24,0,0,0-.83,2.73l1.84-2.41c-3.43.7-7.07-1.07-10.46-1.48-3.19-.38-3.16,4.62,0,5Z" transform="translate(-44.4 -49.13)"/></g><g id="레이어_26" data-name="레이어 26"><path class="cls-2" d="M288.52,214.24A90.82,90.82,0,0,0,290.61,237c.51,2.31,4.43,2.45,4.82,0l.4-2.45c.5-3.15-4.31-4.51-4.82-1.33l-.4,2.45h4.82a85.38,85.38,0,0,1-1.91-21.44c.11-3.22-4.89-3.22-5,0Z" transform="translate(-44.4 -49.13)"/><path class="cls-2" d="M292.44,217.87a110.44,110.44,0,0,1,27.28-15.41l-3.08-1.75,4,24.66c.51,3.16,5.33,1.82,4.82-1.33l-4-24.66a2.51,2.51,0,0,0-3.07-1.75,114.58,114.58,0,0,0-28.47,15.93c-2.52,1.93,0,6.27,2.52,4.31Z" transform="translate(-44.4 -49.13)"/><path class="cls-2" d="M297.6,238.13q13.29-6.51,26.93-12.21c2.87-1.19,1.84-5.79-1.33-4.82l-1.14.35c-3.07.94-1.76,5.76,1.33,4.82l1.14-.35-1.33-4.82Q309,227,295.08,233.81c-2.89,1.42-.36,5.73,2.52,4.32Z" transform="translate(-44.4 -49.13)"/><path class="cls-2" d="M291.63,235.7q-1.87,10.68-3.62,21.38a2.55,2.55,0,0,0,2.42,3.17c4.11-.12,7.93-1.62,11.59-3.41a145.2,145.2,0,0,1,14.3-5.76,142.88,142.88,0,0,0,13.93-6c3.11-1.54,8.65-3.18,9.77-6.83a2.48,2.48,0,0,0-.64-2.43l-.31-.28c-2.38-2.16-5.92,1.36-3.54,3.53l.31.28-.64-2.43c-.23.74-5,2.6-5.85,3-1.61.83-3.25,1.63-4.89,2.39a130.8,130.8,0,0,1-13.75,5.42,50.15,50.15,0,0,0-8.85,3.5c-3.52,1.95-7.33,3.88-11.43,4l2.41,3.16q1.73-10.7,3.61-21.38c.55-3.15-4.26-4.5-4.82-1.33Z" transform="translate(-44.4 -49.13)"/><path class="cls-2" d="M321.82,226.31c5.24,4.08,10.9,7.57,16.1,11.74l1.77-4.27-.92.05c-3.2.19-3.22,5.19,0,5l.92-.05c1.93-.11,3.59-2.8,1.77-4.27-5.2-4.16-10.87-7.65-16.1-11.74-2.51-2-6.07,1.56-3.54,3.54Z" transform="translate(-44.4 -49.13)"/><path class="cls-2" d="M295.52,220.36c.57,1.85.88,4.58,2.56,5.79s3.7.51,5.32-.27c2.2-1.07,4-2.82,6.18-3.85,2-.93,4-1.68,5.19-3.71,2.1-3.71-.7-7.64-4.8-7.29-2.41.21-4.63,1.62-6.74,2.67-1.94,1-5.42,1.81-6.34,4a2.67,2.67,0,0,0,.4,3l.16.2a2.48,2.48,0,0,0,3,.39,4.89,4.89,0,0,0,2-2.64c1.17-3-3.66-4.3-4.82-1.33l-.28.71,1.15-1.5L298,217l3,.39-.17-.21.39,3c.2-.47,3-1.41,3.54-1.68,1-.5,2-1,3-1.49.12-.06,2.72-1.21,2.71-1.23.25.47-2.61,1.55-2.82,1.64a32.52,32.52,0,0,0-5,3.06c-.35.24-3.51,1.67-1.24,2.08-.26-.05-1-3.18-1.09-3.55-.95-3.07-5.78-1.76-4.82,1.33Z" transform="translate(-44.4 -49.13)"/><path class="cls-2" d="M298.86,223.49c5-2.65,10.09-5.07,15.32-7.22,2.93-1.21,1.65-6.05-1.33-4.82q-8.44,3.47-16.52,7.72c-2.84,1.51-.32,5.83,2.53,4.32Z" transform="translate(-44.4 -49.13)"/><path class="cls-2" d="M298.37,222.35l16.7-8.36-3.67-2.82a12.6,12.6,0,0,0-.53,4.64c0,.53.57,1.9.42,2.36.36-1.11-1,.24-1.55.51a67.22,67.22,0,0,1-12.35,4.61l3.17,2.41c.06-1.11.36-3.63-.36-4.57-.06-.7-.18-.72-.38-.06q-.61.93.39.12c.76-.07,2.5-1.44,3.09-1.78L314.43,213c2.79-1.61.28-5.92-2.52-4.32L297,217.14l2.53,4.31A85.08,85.08,0,0,1,315,212.39l-3.76-2.16a65.51,65.51,0,0,0,1.61,9.92l1.75-3.08a91.31,91.31,0,0,0-17.36,6.61,2.53,2.53,0,0,0-.9,3.42c1.72,3,4.53,2.53,7.37,1.34,4.29-1.81,8.55-3.69,12.82-5.53,2.95-1.27.4-5.57-2.52-4.31-1.06.45-13.42,5.85-13.35,6l-.9,3.42a85.06,85.06,0,0,1,16.17-6.11,2.54,2.54,0,0,0,1.75-3.07,55.62,55.62,0,0,1-1.44-8.59,2.54,2.54,0,0,0-3.76-2.16A84.63,84.63,0,0,0,297,217.14c-2.53,1.86-.34,5.94,2.53,4.31l14.9-8.47-2.52-4.32c-4.85,2.8-10.33,5.26-14.85,8.57-3.24,2.39-1.29,5-1.5,8.47a2.52,2.52,0,0,0,3.16,2.42,64.75,64.75,0,0,0,14.72-5.72c4.64-2.63,1.58-5.66,2.78-9.9a2.53,2.53,0,0,0-3.67-2.83L295.84,218c-2.87,1.45-.34,5.76,2.53,4.32Z" transform="translate(-44.4 -49.13)"/><path class="cls-2" d="M297.24,223.9a3.57,3.57,0,0,0,3.59,5.84,2.7,2.7,0,0,0,1.5-1.15,2.6,2.6,0,0,0,.25-1.93,2.52,2.52,0,0,0-3.08-1.74c-.24.08-.12.08.37,0,.49.09.62.11.37,0a1.26,1.26,0,0,1,.93.7c-.23-.55.15.52,0,.12a1.77,1.77,0,0,1-.44,1.68,2.5,2.5,0,0,0-3.53-3.54Z" transform="translate(-44.4 -49.13)"/><path class="cls-2" d="M301.36,243.92h2.1a2.5,2.5,0,0,0,0-5h-2.1a2.5,2.5,0,0,0,0,5Z" transform="translate(-44.4 -49.13)"/><path class="cls-2" d="M314.37,239.46l2.06-.9a2.49,2.49,0,0,0,1.15-1.49,2.5,2.5,0,0,0-1.75-3.08,2.91,2.91,0,0,0-1.92.25l-2.07.9a2.49,2.49,0,0,0-.89,3.42,2.46,2.46,0,0,0,1.49,1.15,2.87,2.87,0,0,0,1.93-.25Z" transform="translate(-44.4 -49.13)"/><path class="cls-2" d="M323.79,235.91l1.67-.42a2.5,2.5,0,1,0-1.33-4.82l-1.67.41a2.53,2.53,0,0,0-1.75,3.08,2.56,2.56,0,0,0,3.08,1.75Z" transform="translate(-44.4 -49.13)"/><path class="cls-2" d="M114.29,375.83c-7.57.49-15.13,3.42-20.29,9.18-4,4.49-2.44,9.74,3.52,10.86,4.25.79,9,.07,13.24-.45s8.44-.94,12.34-2.46c6.06-2.36,10.06-7.59,9-14.18a2.46,2.46,0,0,0-1.75-1.75,40.58,40.58,0,0,0-20.7-.53c-3.14.72-1.81,5.54,1.32,4.82a35.08,35.08,0,0,1,18,.53l-1.74-1.75c1.69,10.39-17.77,10.78-24.14,11-.81,0-4.71.57-5.37-.23-1.94-2.36,2.85-5.14,4.19-6a25.29,25.29,0,0,1,12.35-4c3.2-.21,3.22-5.21,0-5Z" transform="translate(-44.4 -49.13)"/><path class="cls-2" d="M91.61,393.76c3,11.36,13.78,19.12,25.65,17.25s17.56-15.4,17-26.51c-.15-3.2-5.15-3.22-5,0,.38,8.34-3.56,20.05-12.73,21.54-9.49,1.54-17.74-4.59-20.15-13.61-.83-3.11-5.65-1.79-4.82,1.33Z" transform="translate(-44.4 -49.13)"/><path class="cls-2" d="M135.19,384.39a1.78,1.78,0,0,1,1.63-1.72c1.47,0,2,2,2.12,3.11a12.44,12.44,0,0,1,0,2.44c-.09,1,.07,1-.42,1.32-1.08.69-3.94.47-5.17.51-3.22.08-3.23,5.08,0,5,2.93-.08,8.37.17,9.87-3a13.12,13.12,0,0,0-.48-10.76,6.68,6.68,0,0,0-12.52,3.09c-.11,3.21,4.89,3.21,5,0Z" transform="translate(-44.4 -49.13)"/><path class="cls-2" d="M109.49,413A66.94,66.94,0,0,0,128.25,407c2.9-1.4.37-5.71-2.52-4.31a62.64,62.64,0,0,1-17.57,5.43c-3.17.5-1.83,5.32,1.33,4.82Z" transform="translate(-44.4 -49.13)"/><path class="cls-2" d="M107,392.61a73.56,73.56,0,0,0,15.85-4c3-1.12,1.69-6-1.33-4.83a73,73,0,0,1-15.85,4c-3.18.44-1.83,5.26,1.33,4.82Z" transform="translate(-44.4 -49.13)"/><path class="cls-2" d="M105.74,392.16c1.52-2.27,4.32-2.87,6.82-3.43,1.81-.4,7.31-2.12,8.88-1.23l-1.24-2.15.07.6c.36,3.16,5.37,3.19,5,0-.63-5.43-7.56-3.27-11.19-2.61-4.87.88-9.77,2-12.66,6.3-1.79,2.68,2.54,5.19,4.32,2.52Z" transform="translate(-44.4 -49.13)"/><path class="cls-2" d="M279.91,285.05l40.49-18.28,19.8-8.94c3.3-1.48,6.62-2.92,9.9-4.46,2.19-1,3.31-1.46,4.13-3.73a2.52,2.52,0,0,0-1.15-2.82,3,3,0,0,0-3.43,0,2.51,2.51,0,0,0-1.15,2.82l.1.34c.95,3.07,5.78,1.76,4.83-1.33l-.11-.33-1.15,2.82.5-.25h-2.53l.42.26-1.15-2.82c-.32.88-6.21,2.71-7.24,3.18l-9,4.06-18.9,8.53-36.89,16.65c-2.93,1.32-.39,5.64,2.52,4.32Z" transform="translate(-44.4 -49.13)"/><path class="cls-2" d="M259.56,199.5q-.46,39.8,1.79,79.54c.18,3.2,5.19,3.22,5,0q-2.25-39.74-1.79-79.54c0-3.22-5-3.22-5,0Z" transform="translate(-44.4 -49.13)"/><path class="cls-2" d="M262.57,279.31a7,7,0,0,0,5.16,3.5c1.39.29,4.48.15,5.42,1.4,1.92,2.53,6.26.05,4.32-2.52a8.47,8.47,0,0,0-5.65-3.24c-1.48-.27-4.17-.13-4.93-1.67-1.42-2.88-5.74-.35-4.32,2.53Z" transform="translate(-44.4 -49.13)"/><path class="cls-2" d="M369,154.32a938,938,0,0,0-20.49,94.09c-.52,3.15,4.3,4.5,4.82,1.33a938,938,0,0,1,20.49-94.09c.85-3.11-4-4.44-4.82-1.33Z" transform="translate(-44.4 -49.13)"/><path class="cls-2" d="M387.94,145.27l-13.4,69.66c-.32,1.68,1.15,3.82,3.08,3.08l19.56-7.51c3.1-1.19,6.24-2.32,9.31-3.58,1.44-.59,2.65-.93,3.31-2.44a2.6,2.6,0,0,0-.9-3.42,2.54,2.54,0,0,0-2.56-.32,2.6,2.6,0,0,0-1.75,3.08l.05.24c.63,3.15,5.45,1.82,4.82-1.33l0-.24-1.75,3.07-1.29-.18-.9-3.42c-.43,1-5.77,2.23-6.84,2.64l-7.45,2.86-14.9,5.73,3.08,3.07,13.39-69.66c.6-3.15-4.21-4.49-4.82-1.33Z" transform="translate(-44.4 -49.13)"/><path class="cls-2" d="M378.63,239.39a218.4,218.4,0,0,1,28.13-11.18c3.05-1,1.75-5.81-1.33-4.82a228.63,228.63,0,0,0-29.32,11.68c-2.9,1.39-.37,5.7,2.52,4.32Z" transform="translate(-44.4 -49.13)"/><path class="cls-2" d="M375.32,235.88l-9.9,54.2c-.57,3.14,4.24,4.49,4.82,1.33l9.9-54.2c.58-3.15-4.24-4.5-4.82-1.33Z" transform="translate(-44.4 -49.13)"/><path class="cls-2" d="M347.93,268.42l-15.52,65.84c-.74,3.13,4.08,4.46,4.82,1.33l15.52-65.84c.74-3.13-4.08-4.47-4.82-1.33Z" transform="translate(-44.4 -49.13)"/><path class="cls-2" d="M280,300.06q33.45-17,68.25-31c2.95-1.19,1.67-6-1.32-4.82q-35.4,14.25-69.46,31.5c-2.87,1.46-.34,5.77,2.53,4.32Z" transform="translate(-44.4 -49.13)"/><path class="cls-2" d="M349.5,268c.29,0,.18,0-.31-.12a1,1,0,0,1-.74-.34,1.51,1.51,0,0,1-.46-1.05,2.51,2.51,0,0,0,2.5,2.5,2.56,2.56,0,0,0,2.5-2.5A3.46,3.46,0,0,0,349.5,263a2.5,2.5,0,0,0,0,5Z" transform="translate(-44.4 -49.13)"/><path class="cls-2" d="M262.63,294.38a48.11,48.11,0,0,0,14.36,4.2c3.18.42,3.15-4.59,0-5a40.22,40.22,0,0,1-11.84-3.52c-2.89-1.36-5.43,2.95-2.52,4.32Z" transform="translate(-44.4 -49.13)"/><path class="cls-2" d="M247,195q.26,39.19,2.19,78.34c.16,3.2,5.16,3.22,5,0Q252.3,234.21,252,195c0-3.22-5-3.22-5,0Z" transform="translate(-44.4 -49.13)"/><path class="cls-2" d="M365.6,287c2,34,6.83,67.81,8.94,101.82.2,3.2,5.2,3.22,5,0-2.11-34-7-67.79-8.94-101.82-.18-3.19-5.18-3.22-5,0Z" transform="translate(-44.4 -49.13)"/><path class="cls-2" d="M398.12,404.39l20.08-7.48c2.56-1,2.29-4.84-.67-4.91a3.62,3.62,0,0,0-2.72.83c-2.53,1.92-.05,6.26,2.52,4.31l.2-.14-.66-4.91-20.08,7.48c-3,1.11-1.69,5.95,1.33,4.82Z" transform="translate(-44.4 -49.13)"/><path class="cls-2" d="M352.77,345.52q2.1,24.35,4.68,48.65c.33,3.17,5.34,3.2,5,0q-2.58-24.3-4.68-48.65c-.27-3.18-5.27-3.21-5,0Z" transform="translate(-44.4 -49.13)"/><path class="cls-2" d="M353,344q-8.26,40.41-17.09,80.68c-.69,3.14,4.13,4.48,4.82,1.33q8.82-40.27,17.1-80.68c.64-3.14-4.18-4.48-4.83-1.33Z" transform="translate(-44.4 -49.13)"/><path class="cls-2" d="M338.18,428.45a231,231,0,0,0,21.39-10.16c2.83-1.54.31-5.85-2.52-4.32a218.64,218.64,0,0,1-20.2,9.66c-2.93,1.22-1.64,6.06,1.33,4.82Z" transform="translate(-44.4 -49.13)"/><path class="cls-2" d="M419.71,396.07l1.54-.94a2.5,2.5,0,0,0-2.53-4.31l-1.53.94a2.5,2.5,0,1,0,2.52,4.31Z" transform="translate(-44.4 -49.13)"/><path class="cls-2" d="M86,204.18c-14.63.16-25.45,12-26.35,26.24-.39,6.23.94,13.07,5.77,17.39,4.45,4,10.85,5.33,16.64,4.47,13.32-1.95,22.46-15.29,21.06-28.34-1.46-13.58-13.71-26.45-27.34-18-2.73,1.7-.22,6,2.53,4.32,12-7.48,20.73,7.6,19.92,18.28-.73,9.64-8.92,18.64-18.82,19-10.86.39-15.75-8.44-14.62-18.34,1.26-11.06,9.85-19.9,21.21-20,3.22,0,3.23-5,0-5Z" transform="translate(-44.4 -49.13)"/><path class="cls-2" d="M77.18,214.67l-2.19,14c-.26,1.67,1.1,3.83,3.08,3.08,2.46-.93,5.11-.84,7.51-1.71a3.57,3.57,0,0,0,2.53-3.56c-.1-2.46-2-5.35-2.92-7.59s-1.68-4.46-3.42-6.17a2.52,2.52,0,0,0-4.18,2.43l.15.57c.82,3.1,5.65,1.79,4.82-1.33l-.15-.57-4.17,2.43c1.45,1.43,2,3.72,2.79,5.56a33.79,33.79,0,0,1,2.21,5.67l.25-1.93a47.76,47.76,0,0,0-6.75,1.38L79.82,230,82,216c.49-3.15-4.32-4.5-4.82-1.33Z" transform="translate(-44.4 -49.13)"/><path class="cls-2" d="M74.82,230.26c.76,4.36,3.9,8.71,6.29,12.35a2.51,2.51,0,0,0,4.57-1.92l-.06-.23c-.74-3.13-5.57-1.8-4.82,1.33l0,.23,4.57-1.93c-2.12-3.24-5.1-7.28-5.78-11.16-.55-3.17-5.37-1.82-4.82,1.33Z" transform="translate(-44.4 -49.13)"/><path class="cls-2" d="M83.22,226.89c-.74,4.89-1.32,9.8-1.7,14.73-.26,3.21,4.74,3.19,5,0,.35-4.49.85-9,1.53-13.4.47-3.15-4.34-4.51-4.83-1.33Z" transform="translate(-44.4 -49.13)"/><path class="cls-2" d="M76.74,223.2a6.29,6.29,0,0,0,.45,5.38c1,1.78,3.29,1.44,4.32,0A9.08,9.08,0,0,0,82.82,221c-.57-2.25-4.43-2.52-4.82,0a6.19,6.19,0,0,0,1.44,5.31c1.45,1.78,4.2.22,4.26-1.77l.18-5.27c.08-2.42-3.54-3.49-4.66-1.26a5.19,5.19,0,0,0,0,4.76,19,19,0,0,0,1,1.69l.24.42c.08.33.15.36.2.07.09,0,.4-.66.6-.64l1.26.34,0,0c-2.24-2.31-5.78,1.23-3.53,3.53a3.86,3.86,0,0,0,6.1-1.09,4.53,4.53,0,0,0,.13-3.76,11,11,0,0,0-1-1.86c-.16-.26-.57-1.19-.67-1l-4.66-1.26-.18,5.27L83,222.74a.63.63,0,0,1-.15-.45H78a4.25,4.25,0,0,1-.81,3.76h4.32a1.53,1.53,0,0,1,0-1.52,2.52,2.52,0,0,0-1.74-3.08,2.56,2.56,0,0,0-3.08,1.75Z" transform="translate(-44.4 -49.13)"/><path class="cls-2" d="M96.65,228.38l4.54-1.91a2.58,2.58,0,0,0,1.75-3.07c-.33-1.17-1.83-2.28-3.08-1.75l-4.54,1.91a2.58,2.58,0,0,0-1.74,3.08,2.51,2.51,0,0,0,3.07,1.74Z" transform="translate(-44.4 -49.13)"/><path class="cls-2" d="M64.5,237.49a11.94,11.94,0,0,0,4.67-.57,2.5,2.5,0,0,0-1.33-4.83,7.17,7.17,0,0,1-3.34.4A2.5,2.5,0,0,0,62,235a2.57,2.57,0,0,0,2.5,2.5Z" transform="translate(-44.4 -49.13)"/><path class="cls-2" d="M71.07,197.33l-.93,6.51a2.58,2.58,0,0,0,1.74,3.08A2.52,2.52,0,0,0,75,205.17l.93-6.51a2.58,2.58,0,0,0-1.75-3.07,2.51,2.51,0,0,0-3.07,1.74Z" transform="translate(-44.4 -49.13)"/><path class="cls-2" d="M71.51,197.49a16,16,0,0,0,8.08,5.9c1.71.56,3-.9,3.16-2.41l1.07-8.5a2.51,2.51,0,0,0-2.5-2.5,2.55,2.55,0,0,0-2.5,2.5L77.75,201l3.17-2.41a10.27,10.27,0,0,1-5.1-3.61,2.58,2.58,0,0,0-3.42-.89,2.51,2.51,0,0,0-.89,3.42Z" transform="translate(-44.4 -49.13)"/><path class="cls-2" d="M133.1,159.55q4.56,51.42,10.42,102.71c.36,3.16,5.37,3.2,5,0Q142.64,211,138.1,159.55c-.29-3.18-5.29-3.21-5,0Z" transform="translate(-44.4 -49.13)"/><path class="cls-2" d="M185.39,258.71c22.11,5.83,44.89,10.62,66.51,18.1,3,1.06,4.35-3.77,1.33-4.82-21.62-7.48-44.4-12.27-66.51-18.1-3.11-.83-4.44,4-1.33,4.82Z" transform="translate(-44.4 -49.13)"/><path class="cls-2" d="M147.71,263.54l21.9-7.77c3-1.07,1.72-5.9-1.32-4.82l-21.91,7.77c-3,1.07-1.71,5.9,1.33,4.82Z" transform="translate(-44.4 -49.13)"/><path class="cls-2" d="M170,255.78a95.8,95.8,0,0,1,19.28,3.73c3.09.93,4.41-3.89,1.33-4.82A102.45,102.45,0,0,0,170,250.78c-3.21-.27-3.19,4.73,0,5Z" transform="translate(-44.4 -49.13)"/><path class="cls-2" d="M149.2,280.57a175,175,0,0,0,21.52-7c2.95-1.18,1.66-6-1.33-4.82a174.46,174.46,0,0,1-21.52,7c-3.11.79-1.79,5.62,1.33,4.82Z" transform="translate(-44.4 -49.13)"/><path class="cls-2" d="M151.44,338.48q2.81,31.51,5.82,63c.3,3.17,5.31,3.2,5,0q-3-31.5-5.82-63c-.29-3.18-5.29-3.21-5,0Z" transform="translate(-44.4 -49.13)"/><path class="cls-2" d="M146.25,278.19q1.84,22.19,3.78,44.35c.28,3.18,5.28,3.21,5,0q-1.93-22.17-3.78-44.35c-.27-3.18-5.27-3.21-5,0Z" transform="translate(-44.4 -49.13)"/><path class="cls-2" d="M172,273.78a95.8,95.8,0,0,1,19.28,3.73c3.09.93,4.41-3.89,1.33-4.82A102.45,102.45,0,0,0,172,268.78c-3.21-.27-3.19,4.73,0,5Z" transform="translate(-44.4 -49.13)"/><path class="cls-2" d="M141,401.18l1.37,10c.19,1.35,1.9,2.06,3.08,1.74a2.55,2.55,0,0,0,1.74-3.07l-1.37-10c-.19-1.35-1.9-2.05-3.08-1.74a2.55,2.55,0,0,0-1.74,3.07Z" transform="translate(-44.4 -49.13)"/><path class="cls-2" d="M156.75,399a99.79,99.79,0,0,0,1,10.23c.46,2.32,2.25,4.32,4.78,3.58,3.08-.9,1.77-5.73-1.33-4.82,1.16.83,1.64.86,1.42.07,0-.41-.1-.82-.13-1.23-.09-.87-.17-1.74-.25-2.61l-.5-5.22c-.3-3.18-5.31-3.21-5,0Z" transform="translate(-44.4 -49.13)"/><path class="cls-2" d="M163.26,413.21l16.79-5.16c3.07-.95,1.76-5.77-1.33-4.82l-16.79,5.16c-3.07.94-1.76,5.77,1.33,4.82Z" transform="translate(-44.4 -49.13)"/><path class="cls-2" d="M67.82,457.36l77.3-25.29c3-1,1.75-5.83-1.32-4.83l-77.31,25.3c-3,1-1.74,5.83,1.33,4.82Z" transform="translate(-44.4 -49.13)"/><path class="cls-2" d="M143.48,429a114.81,114.81,0,0,0,1.32,15.71c.48,3.17,5.3,1.82,4.82-1.33A106.52,106.52,0,0,1,148.48,429c0-3.21-5-3.22-5,0Z" transform="translate(-44.4 -49.13)"/><path class="cls-2" d="M160.5,425.5a35.61,35.61,0,0,0,.75,8.36c.25,1.35.35,3.1,1.07,4.3a2.54,2.54,0,0,0,4.32,0,2.73,2.73,0,0,0,.36-1.66c-.14-3.21-5.14-3.22-5,0,0,.62.11.33.32-.87h4.32c.49.82-.06-.54-.14-.92-.16-.72-.3-1.45-.43-2.18a29.6,29.6,0,0,1-.57-7c.19-3.21-4.81-3.2-5,0Z" transform="translate(-44.4 -49.13)"/><path class="cls-2" d="M163.8,428.78l18.25-6.68c3-1.1,1.7-5.93-1.33-4.82L162.47,424c-3,1.1-1.7,5.94,1.33,4.83Z" transform="translate(-44.4 -49.13)"/><path class="cls-2" d="M247.67,302q-.55,16,.19,32c.14,3.21,5.15,3.22,5,0q-.75-16-.19-32c.11-3.22-4.89-3.22-5,0Z" transform="translate(-44.4 -49.13)"/><path class="cls-2" d="M233.8,333a139.09,139.09,0,0,0,16.48,5.62c3.11.85,4.44-4,1.33-4.82a139.09,139.09,0,0,1-16.48-5.62c-3-1.23-4.26,3.61-1.33,4.82Z" transform="translate(-44.4 -49.13)"/><path class="cls-2" d="M153.19,326.45q10.78-3.31,21.68-6.22c3.1-.83,1.79-5.65-1.33-4.82q-10.9,2.91-21.68,6.22c-3.06.94-1.76,5.77,1.33,4.82Z" transform="translate(-44.4 -49.13)"/><path class="cls-2" d="M175,320a53.3,53.3,0,0,1,6.44.57,2.58,2.58,0,0,0,3.08-1.74,2.53,2.53,0,0,0-1.75-3.08A63.26,63.26,0,0,0,175,315c-3.22-.11-3.22,4.89,0,5Z" transform="translate(-44.4 -49.13)"/><path class="cls-2" d="M154.24,339.62a196.79,196.79,0,0,1,22.37-6.94c3.12-.77,1.8-5.6-1.33-4.83a198.88,198.88,0,0,0-22.37,6.95c-3,1.12-1.69,6,1.33,4.82Z" transform="translate(-44.4 -49.13)"/><path class="cls-2" d="M266.94,365.5q.1,18.51.7,37c.1,3.21,5.1,3.22,5,0q-.6-18.5-.7-37c0-3.22-5-3.22-5,0Z" transform="translate(-44.4 -49.13)"/><path class="cls-2" d="M269.06,404.39a53,53,0,0,0,12.84,6.84c3,1.12,4.32-3.71,1.33-4.82a48.34,48.34,0,0,1-11.64-6.34c-2.6-1.9-5.1,2.44-2.53,4.32Z" transform="translate(-44.4 -49.13)"/><path class="cls-2" d="M285.33,412.31q14.6-6.71,29.55-12.51c3-1.15,1.68-6-1.32-4.82q-15.57,6-30.75,13c-2.92,1.34-.38,5.65,2.52,4.31Z" transform="translate(-44.4 -49.13)"/><path class="cls-2" d="M290,425c7.1-.23,13.81-4.78,20-7.83,2.89-1.41.36-5.72-2.52-4.31C302.21,415.49,296,419.84,290,420c-3.21.11-3.23,5.11,0,5Z" transform="translate(-44.4 -49.13)"/><path class="cls-2" d="M269.6,418l16.3,7.35c2.91,1.31,5.45-3,2.52-4.32l-16.29-7.35c-2.91-1.31-5.46,3-2.53,4.32Z" transform="translate(-44.4 -49.13)"/><path class="cls-2" d="M287,425h2.5a2.5,2.5,0,0,0,0-5H287a2.5,2.5,0,0,0,0,5Z" transform="translate(-44.4 -49.13)"/><path class="cls-2" d="M268.14,416l1.78,62.48c.09,3.21,5.09,3.22,5,0L273.14,416c-.09-3.21-5.09-3.22-5,0Z" transform="translate(-44.4 -49.13)"/><path class="cls-2" d="M219.44,224.28c-6.91-1.21-14.25-.31-20.17,3.71-4.72,3.21-4.43,8.4.81,10.8,6.23,2.85,16.37,3.79,23.1,3,6-.71,11-4.51,11.46-10.78a2.44,2.44,0,0,0-1.24-2.15,37,37,0,0,0-18.3-5c-3.22-.05-3.22,4.95,0,5a31.92,31.92,0,0,1,15.78,4.33L229.64,231c-.72,9.17-17,5.59-22.55,4.5-1.71-.33-4.13-.24-4.77-2.1-.69-2,1.58-2.39,3.41-3.12a22.46,22.46,0,0,1,12.38-1.18c3.14.55,4.5-4.27,1.33-4.82Z" transform="translate(-44.4 -49.13)"/><path class="cls-2" d="M195.12,235.36c.32,10.86,8.1,20.26,19.26,21.14s19-9.91,21-19.88c.62-3.15-4.2-4.49-4.82-1.33-1.33,6.79-6.89,16.24-14.52,16.29-9.06,0-15.63-7.55-15.88-16.22-.09-3.21-5.09-3.23-5,0Z" transform="translate(-44.4 -49.13)"/><path class="cls-2" d="M236.15,236.7a1.38,1.38,0,0,1,1.73-1c1.08.41,1,2.22.87,3.1a12.84,12.84,0,0,1-.62,2.09c-.14.39-.29.79-.45,1.17l.55-.41a17.94,17.94,0,0,1-5-.66c-3.14-.7-4.48,4.12-1.33,4.82,2.65.58,7.36,2,9.52-.34s2.85-6.69,2.24-9.52a6.28,6.28,0,0,0-12.29-.58c-.85,3.11,4,4.44,4.82,1.33Z" transform="translate(-44.4 -49.13)"/><path class="cls-2" d="M206.94,256.51a61.7,61.7,0,0,0,18-1.18c3.15-.67,1.81-5.49-1.33-4.82a56.75,56.75,0,0,1-16.65,1c-3.21-.27-3.19,4.73,0,5Z" transform="translate(-44.4 -49.13)"/><path class="cls-2" d="M209.16,238a67.48,67.48,0,0,0,14.9-.12c3.15-.37,3.19-5.38,0-5a67.48,67.48,0,0,1-14.9.12c-3.2-.33-3.18,4.68,0,5Z" transform="translate(-44.4 -49.13)"/><path class="cls-2" d="M208.33,237.26c2-1.77,4.78-1.58,7.25-1.5,1.43,0,6.28-.28,7.34.73l-.73-1.77-.07.55c-.4,3.18,4.6,3.15,5,0,.57-4.54-6.84-4.25-9.56-4.42-4.57-.28-9.18-.36-12.77,2.87-2.39,2.16,1.15,5.68,3.54,3.54Z" transform="translate(-44.4 -49.13)"/></g><g id="레이어_28" data-name="레이어 28"><path class="cls-4" d="M167.92,160.32a60.89,60.89,0,0,0-6.49-2.78c-2.19-.79-3.74,1.89-2.82,3.67l.24.48c1.47,2.86,5.79.33,4.32-2.53l-.24-.47-2.83,3.67a49.59,49.59,0,0,1,5.29,2.28,2.56,2.56,0,0,0,3.42-.9,2.52,2.52,0,0,0-.89-3.42Z" transform="translate(-44.4 -49.13)"/><path class="cls-4" d="M150.13,176.75q.72.87,1.53,1.68a2.5,2.5,0,0,0,3.28.2,2.54,2.54,0,0,0,.64-3.23,10.11,10.11,0,0,0-1-1.67,2.78,2.78,0,0,0-1.5-1.15,2.58,2.58,0,0,0-1.92.25,2.53,2.53,0,0,0-.9,3.42,9.85,9.85,0,0,1,1,1.68l3.92-3c-.53-.54-1-1.1-1.53-1.69a2.51,2.51,0,0,0-3.53,0,2.56,2.56,0,0,0,0,3.54Z" transform="translate(-44.4 -49.13)"/><path class="cls-4" d="M161.46,157.61c-3.29-2.18-8.21-4.35-11.36-.73-2.1,2.41,1.42,6,3.54,3.53,1.28-1.46,4.11.73,5.3,1.52,2.69,1.79,5.19-2.54,2.52-4.32Z" transform="translate(-44.4 -49.13)"/><path class="cls-4" d="M187.27,201.09c-.76-.57-.91-.57-.43,0a7.34,7.34,0,0,0,.67.91,12.91,12.91,0,0,0,1.3,1.46,16.36,16.36,0,0,0,4.2,2.84c3.56,1.7,7.45,2.19,11.32,2.62,3.19.36,3.17-4.64,0-5-4-.44-8.27-1-11.47-3.58-1.79-1.45-2.84-4.62-5.59-4.26-3.14.43-3.19,5.43,0,5Z" transform="translate(-44.4 -49.13)"/><path class="cls-4" d="M190.19,203.27c9.64,5.21,22.91,3.77,33.48,3.53,3.21-.07,3.22-5.07,0-5-5.18.11-10.35.11-15.53-.07s-10.66-.2-15.42-2.78c-2.83-1.53-5.36,2.78-2.53,4.32Z" transform="translate(-44.4 -49.13)"/><path class="cls-4" d="M200.67,203.53c7.24-.41,14.18,1.56,21.34,2.1a42.7,42.7,0,0,0,18.87-3c2.43-1,2.38-5-.67-4.91l-2.55-.15c-3.14-.62-4.48,4.19-1.32,4.82a12.31,12.31,0,0,0,3.87.33l-.66-4.91a40.08,40.08,0,0,1-19.32,2.63c-6.58-.71-12.9-2.3-19.56-1.93-3.2.18-3.22,5.18,0,5Z" transform="translate(-44.4 -49.13)"/><path class="cls-4" d="M217.33,203.51a197.7,197.7,0,0,0,44-.32,2.5,2.5,0,0,0,0-5l-2.63-.36c-3.18-.42-3.15,4.58,0,5l2.63.36v-5a197.7,197.7,0,0,1-44,.32c-3.19-.34-3.17,4.66,0,5Z" transform="translate(-44.4 -49.13)"/><path class="cls-4" d="M232,209.39a166.68,166.68,0,0,0,32.38-2.74c3.16-.57,1.82-5.39-1.33-4.82A159.28,159.28,0,0,1,232,204.39c-3.22,0-3.22,5,0,5Z" transform="translate(-44.4 -49.13)"/><path class="cls-4" d="M233.66,209a146.42,146.42,0,0,0,29.69-2.65c2.76-.54,2.14-5.05-.67-4.92A223.63,223.63,0,0,1,210.83,198l-.66,4.91q20.34,1.08,40.68.21c2.66-.11,3.59-4.5.67-4.91-14.72-2-29.45-4.23-43.29-9.9-2.61-1.07-4.47,3.35-1.93,4.57,10.68,5.15,22.18,7.11,33.8,8.85,3.11.46,4.48-3.84,1.33-4.82a195.63,195.63,0,0,0-28.87-6.71c-2.61-.4-4.59,3.07-1.92,4.57A72.76,72.76,0,0,0,230,202.25c2.9.68,4.14-2.92,1.93-4.56-7.09-5.28-14.42-10.15-23.52-10.44-2-.06-3.52,2.9-1.77,4.27a32.18,32.18,0,0,0,22.75,7,2.52,2.52,0,0,0,1.26-4.66c-4.52-3.08-13.19-7.91-19-6-4,1.29-4.45,7-.1,8,3.13.73,4.47-4.09,1.33-4.82,1.36.32,2.92,1.64,4.35,2.15s2.84.8,4.23,1.35a34.26,34.26,0,0,1,6.67,3.64l1.26-4.66A27.07,27.07,0,0,1,210.14,188l-1.76,4.27c8.12.26,14.71,5.08,21,9.75l1.93-4.57a68,68,0,0,1-18.14-7L211.23,195a196.9,196.9,0,0,1,28.87,6.71l1.33-4.82c-11.14-1.67-22.37-3.41-32.6-8.35l-1.93,4.57c13.84,5.67,28.57,7.86,43.29,9.91l.66-4.92q-20.34.87-40.68-.21c-2.78-.15-3.46,4.39-.66,4.91a229.47,229.47,0,0,0,53.17,3.67l-.66-4.91A139.08,139.08,0,0,1,233.66,204c-3.22,0-3.22,5,0,5Z" transform="translate(-44.4 -49.13)"/><path class="cls-4" d="M284.12,204.2a54.47,54.47,0,0,0,14.66,11.7,2.51,2.51,0,0,0,3-3.93l-11.57-12.55c-1.92-2.08-5.43.62-3.93,3,5.92,9.51,16.86,14.28,22.44,24,1.6,2.8,5.93.28,4.32-2.52-5.63-9.81-16.54-14.54-22.44-24l-3.93,3,11.57,12.56,3-3.93a50.44,50.44,0,0,1-13.65-10.92c-2.14-2.41-5.66,1.14-3.53,3.54Z" transform="translate(-44.4 -49.13)"/><path class="cls-4" d="M297.58,196.77l4.81,15.86,3.67-2.83c-2.45-1.1-4.86-8.93-6-11.27-1.21-2.51-4.38-.89-4.66,1.26a28.3,28.3,0,0,0,.21,8.47l4.57-1.93c-1.31-2.15-2.69-4.2-4.2-6.22s-5.52-1-4.57,1.93a37,37,0,0,0,6.85,12.37c1.33,1.62,4.46.33,4.26-1.77-.22-2.36-.41-4.71-.54-7.08,0-.48-.39-6.34-.59-6.24l-3.67-1.49,5.1,18.15c.88,3.1,5.61,1.8,4.83-1.33a123,123,0,0,1-3.21-18.87l-4.91.66q1.95,9.66,4.4,19.18c.83,3.2,5.29,1.77,4.82-1.32a189.52,189.52,0,0,1-2-22.69h-5l1.82,23.45c.25,3.17,5.13,3.25,5,0a134.3,134.3,0,0,1,1.11-23.88h-4.82c1.07,7.58.6,15.2.1,22.8-.21,3.21,4.79,3.2,5,0,.53-8.1.86-16.07-.28-24.13-.33-2.38-4.49-2.39-4.82,0a141.73,141.73,0,0,0-1.29,25.21h5l-1.82-23.45c-.25-3.16-5.1-3.25-5,0a201,201,0,0,0,2.2,24l4.82-1.32q-2.46-9.54-4.4-19.19c-.55-2.72-5.17-2.15-4.91.67a132.88,132.88,0,0,0,3.38,20.2l4.83-1.33-5.11-18.15a2.53,2.53,0,0,0-3.67-1.49c-2.16,1.19-2.08,3-2.08,5.23,0,4.14.35,8.29.73,12.4l4.27-1.77a30.07,30.07,0,0,1-5.55-10.16l-4.57,1.93c1.5,2,2.89,4.07,4.19,6.21,1.56,2.55,5,.78,4.57-1.92a23.74,23.74,0,0,1,0-7.14l-4.66,1.27c1.85,3.85,3.63,11.19,7.78,13.06,1.86.84,4.36-.56,3.67-2.82l-4.81-15.86c-.93-3.07-5.76-1.76-4.82,1.33Z" transform="translate(-44.4 -49.13)"/><path class="cls-4" d="M334.05,176.24c-3.25,7-9.86,10.11-16.86,12.29s-13.83,4-20.74,5.93c-2.86.81-2,4.63.67,4.91a3.63,3.63,0,0,0,2.2-.31c2.94-1.19,1.66-6-1.33-4.82l-.87.13.66,4.91c13.64-3.87,33.81-6,40.59-20.52,1.36-2.89-2.95-5.43-4.32-2.52Z" transform="translate(-44.4 -49.13)"/><path class="cls-4" d="M139.83,156.51a11.36,11.36,0,0,1,4.06,4.42l3.93-3a65,65,0,0,1-4.95-7.26c-1.35-2.27-4.44-1.11-4.66,1.26a13,13,0,0,0,2.59,9.23c1.57,2.1,5.5,1,4.57-1.92a27.08,27.08,0,0,0-2.28-5.24,2.53,2.53,0,0,0-4.32,0,5.06,5.06,0,0,0,3,7.47,2.51,2.51,0,0,0,3.07-3.07,14.29,14.29,0,0,0-3.54-6.07c-1.44-1.5-4.4-.42-4.26,1.76a10.54,10.54,0,0,0,3,7c1.69,1.76,5,0,4.18-2.44a30.39,30.39,0,0,0-3.05-6.57,2.53,2.53,0,0,0-4.57.59c-.82,2.75-1.16,6.27.55,8.76,1.2,1.74,3.48,2.83,5.43,1.55,4.62-3.06,1.2-11.15-1.88-13.87a2.53,2.53,0,0,0-4.27,1.76c-.16,10.87,10,15.91,18.77,19.25,3,1.15,4.31-3.69,1.33-4.82-6.55-2.5-15.22-6.09-15.1-14.43l-4.27,1.77a6.63,6.63,0,0,1,2.09,2.9c.14.41.86,3.09.22,3.37l1.93-.25c-1.17-.29-.2-3.92,0-4.66l-4.56.6a25.68,25.68,0,0,1,2.54,5.38l4.18-2.43a5,5,0,0,1-1.54-3.44l-4.27,1.77A8.91,8.91,0,0,1,140,159.7l3.08-3.08v-.12h-4.32a20.84,20.84,0,0,1,1.78,4l4.57-1.93a9,9,0,0,1-1.91-6.71l-4.66,1.26a75.77,75.77,0,0,0,5.73,8.28c1.82,2.3,5.22-.63,3.93-3a16.51,16.51,0,0,0-5.86-6.22c-2.72-1.73-5.23,2.59-2.52,4.32Z" transform="translate(-44.4 -49.13)"/><path class="cls-4" d="M151.27,160.71a47.68,47.68,0,0,0,35.78,14.23,2.58,2.58,0,0,0,2.42-1.83c1.62-5-5.56-8.17-9.14-9.86a42.87,42.87,0,0,0-18.77-4c-2,0-3.53,2.86-1.77,4.27a93.27,93.27,0,0,0,35.7,17.78c2.34.58,4.3-2.42,2.43-4.18-12-11.26-25.3-21.86-41.87-24.93a2.53,2.53,0,0,0-2.82,3.67c5,11.22,18.15,16.38,29.13,19.73a97.81,97.81,0,0,0,19.85,3.82c6,.54,13.58,1.51,18.72-2.38a2.54,2.54,0,0,0,0-4.31,112.29,112.29,0,0,0-52.47-21.88c-4.32-.61-9.48-1.89-12.85,1.63a2.53,2.53,0,0,0-.39,3,78.31,78.31,0,0,0,68.44,31.63,2.55,2.55,0,0,0,2.5-2.5c-.1-6-5.06-9-9.57-12.06a174.75,174.75,0,0,0-18.39-10.95,98.55,98.55,0,0,0-18.7-7.38c-4.78-1.3-13.62-4.21-18.24-1.25-10.87,6.95,6.62,19.77,11.91,23.22A68.13,68.13,0,0,0,211,187.11c1.72,0,3.35-2.19,2.16-3.77a77.77,77.77,0,0,0-27.71-23.12c-6.29-3.07-25.24-10.49-24.56,3.39.51,10.66,13.88,18.92,22.27,23.12a68,68,0,0,0,36,6.93c1.7-.14,3.37-2.09,2.16-3.76-6.89-9.51-17.08-15.21-27.19-20.77a82.49,82.49,0,0,0-16.75-7.44c-4.27-1.22-11-3.06-15.15-.67-8.94,5.15,5.67,17.61,10,20.64,10.53,7.45,23.53,9.71,36.14,10.47a2.51,2.51,0,0,0,2.16-3.76,55.83,55.83,0,0,0-23.4-19.16c-6.1-2.62-18.18-7.29-23.46-.63-6.13,7.74,5.49,16.37,11.47,19.33,11.31,5.61,24.08,5.38,36.38,4.94,3.21-.11,3.23-5.11,0-5-9.06.32-18.35.72-27.17-1.74a36.35,36.35,0,0,1-9.4-4c-2.32-1.44-12.47-9.24-5.18-11.57,5.74-1.84,14.75,2.65,19.58,5.29a50.5,50.5,0,0,1,16.86,15.08l2.16-3.77c-9.71-.59-19.63-2-28.37-6.59a40.1,40.1,0,0,1-10.55-7.78c-1-1-4.26-4-4.24-5.54.05-3.39,4.21-2.05,6.11-1.76,9.22,1.4,17.49,6.34,25.47,10.88,7.56,4.3,15.07,8.93,20.25,16.08l2.16-3.76c-17.46,1.44-37.51-4.26-49.41-17.81-2.15-2.44-3.86-4.73-3-8,.75-2.88,2.11-2.86,4.9-2.47a20.68,20.68,0,0,1,3.72,1,69.48,69.48,0,0,1,12.44,5.76,72.31,72.31,0,0,1,21,18.69l2.16-3.76a63.55,63.55,0,0,1-27.54-5.93,61.53,61.53,0,0,1-12.41-7.7,44.3,44.3,0,0,1-4.78-4.3c-.85-.91-2.92-2.82-2.93-4.05l2.29-3.27a22.9,22.9,0,0,1,3,.26c9.77,1.14,19.18,4.7,27.88,9.17,4.07,2.09,8,4.4,11.88,6.83,3.67,2.31,12.75,6.42,12.84,11.48l2.5-2.5A73.29,73.29,0,0,1,159.54,153l-.39,3c2.77-2.89,12.85.38,16.21,1.11a108.26,108.26,0,0,1,43,19.91v-4.31c-4.43,3.34-11.84,2.14-17.09,1.61a92.34,92.34,0,0,1-17.63-3.57c-9.77-3-21.7-7.41-26.15-17.42L154.72,157c15.76,2.92,28.28,12.93,39.66,23.64l2.44-4.17A87.37,87.37,0,0,1,163.33,160l-1.77,4.27A38,38,0,0,1,173.82,166c1.31.43,11.27,4.37,10.82,5.77l2.41-1.84a42.7,42.7,0,0,1-32.24-12.77c-2.27-2.29-5.81,1.25-3.54,3.54Z" transform="translate(-44.4 -49.13)"/><path class="cls-4" d="M162.81,184.2c11.47,13.36,31.72,18.63,48.79,18.68,3.22,0,3.23-5,0-5-15.8,0-34.64-4.85-45.26-17.21-2.09-2.45-5.62,1.1-3.53,3.53Z" transform="translate(-44.4 -49.13)"/><path class="cls-4" d="M159.48,179.4c12.43,13.19,28,26.59,47.53,22.31,3.14-.69,1.81-5.52-1.33-4.82-17.53,3.85-31.62-9.31-42.66-21-2.22-2.34-5.75,1.2-3.54,3.54Z" transform="translate(-44.4 -49.13)"/><path class="cls-4" d="M163,182.5c.7,7.32,6.46,11.94,12.95,14.53a43.32,43.32,0,0,0,11.84,2.69c3.89.39,9.41,1.23,13.17-.15a2.57,2.57,0,0,0,1.83-2.42l0-.41a2.6,2.6,0,0,0-1.84-2.41l-.34-.08c-3.13-.73-4.47,4.09-1.33,4.82l.34.08-1.83-2.41,0,.41,1.84-2.41c-4.75,1.75-13,.15-17.69-1-5.52-1.39-13.31-4.67-13.94-11.22-.3-3.17-5.31-3.21-5,0Z" transform="translate(-44.4 -49.13)"/><path class="cls-4" d="M163.12,186.85c7.84,8.5,19.16,11.21,30.22,12.65,15.1,2,30.33,2.28,45.37-.37,3.17-.55,1.82-5.37-1.33-4.82-13.38,2.36-27,2.15-40.45.63-10.86-1.23-22.52-3.22-30.27-11.62-2.19-2.37-5.72,1.17-3.54,3.53Z" transform="translate(-44.4 -49.13)"/><path class="cls-4" d="M173.75,188.18a211.72,211.72,0,0,0,62.46,9.67c2.73,0,3.51-4.41.67-4.91L205,187.3c-8.27-1.46-19.17-5.47-27.32-2-1.58.66-2.67,2.79-1.1,4.18,6.6,5.84,15.07,7,23.55,7.81a235.64,235.64,0,0,0,33.71.81c2.66-.12,3.58-4.41.66-4.91l-55-9.58c-2.66-.46-4.54,3.07-1.93,4.57a90.88,90.88,0,0,0,72.14,8c2.54-.79,2.18-3.9,0-4.82a98,98,0,0,0-52.13-6.57c-1.71.24-2.14,2.41-1.5,3.67,4.34,8.54,16.65,9.64,25,11A143.92,143.92,0,0,0,257,200.43c2.56-.24,3.67-4.44.66-4.91a124.94,124.94,0,0,0-26.77-1.46c-5.35.31-14.43-.18-17.3,5.49a2.53,2.53,0,0,0,.9,3.42,53.38,53.38,0,0,0,38.42,2.56c2.24-.69,2.52-4.26,0-4.82a117.59,117.59,0,0,0-35.1-2.42,2.51,2.51,0,0,0-.67,4.91,71.15,71.15,0,0,0,42.23,2.24c1.94-.48,2.61-3.67.6-4.57A44.15,44.15,0,0,0,231.7,198c-2.93.66-2,4.67.66,4.91a121.24,121.24,0,0,0,45.73-4.51c2.59-.77,2.25-5.22-.66-4.91-10.74,1.13-21.49,2.26-32.27,2.92-9.9.61-20.53,1.52-29.48-3.55l.9,3.42c1.63-2.68,8.63-2.09,11.34-2.24,3.87-.21,7.75-.3,11.62-.27A186.83,186.83,0,0,1,264,195.61l.66-4.91c-18.57,1-37.68-.87-53.6-11.27l-2.52,4.32A86.24,86.24,0,0,0,257.88,194c2.21-.21,3.72-3.49,1.26-4.66a178.28,178.28,0,0,0-51.67-15.72c-2.34-.33-4.32,2.23-2.43,4.18,11.94,12.35,29.72,13.91,46,14.75a2.53,2.53,0,0,0,2.5-2.5c0-6.63-9-8-13.87-9.51A222.31,222.31,0,0,0,213.07,174c-2.24-.41-4.48,2.39-2.43,4.18a40.35,40.35,0,0,0,35.88,9.16c3.13-.7,1.81-5.52-1.33-4.82a35.12,35.12,0,0,1-31-7.87l-2.43,4.17c6.19,1.14,12.33,2.5,18.41,4.15,2.64.72,18.33,4,18.35,7.08l2.5-2.5c-14.88-.77-31.45-1.94-42.43-13.28l-2.43,4.17a174.16,174.16,0,0,1,50.47,15.22l1.27-4.66A81.52,81.52,0,0,1,211,179.43c-2.84-1.55-5.21,2.56-2.52,4.32,16.62,10.85,36.73,12.95,56.12,11.95,2.64-.13,3.6-4.49.67-4.91a192.85,192.85,0,0,0-31.58-2c-6.16.14-17.68-1.28-21.47,4.94a2.53,2.53,0,0,0,.9,3.42c8.68,4.91,18.49,4.93,28.19,4.44,12.06-.6,24.08-1.87,36.08-3.13l-.66-4.91a117.57,117.57,0,0,1-44.41,4.33l.67,4.91a38.29,38.29,0,0,1,24.36,2.38l.6-4.57a66.45,66.45,0,0,1-39.57-2.24l-.66,4.91a113,113,0,0,1,33.77,2.24v-4.82A48.17,48.17,0,0,1,217,198.66l.9,3.42c1.42-2.81,6.73-2.52,9.25-2.75,3.11-.28,6.23-.43,9.34-.47a119.84,119.84,0,0,1,19.84,1.48l.66-4.91a141.78,141.78,0,0,1-29.56-.2,128.38,128.38,0,0,1-15.33-2.7c-4.5-1.07-9.44-2.17-11.71-6.63l-1.49,3.67a93.34,93.34,0,0,1,49.47,6.57v-4.82a85.77,85.77,0,0,1-68.29-7.5l-1.92,4.57,55,9.58.67-4.91a239.13,239.13,0,0,1-27.95-.32c-8.62-.62-19-.79-25.78-6.84l-1.1,4.18c4.61-1.94,9.29-.67,14,.17l14.51,2.56,28,4.95.66-4.91a206.48,206.48,0,0,1-61.13-9.49c-3.08-1-4.4,3.86-1.33,4.82Z" transform="translate(-44.4 -49.13)"/><path class="cls-4" d="M224.38,184.77c17.21,4.86,35.06,5.91,52.84,6.82,2.81.14,3.41-4.27.67-4.92-17.74-4.2-38.74-7.73-56.63-2.77-2.24.62-2.26,3.34-.6,4.57,7.29,5.35,16.06,7,24.88,7.9,10.32,1,20.84,1.94,31-.53a2.53,2.53,0,0,0,.59-4.57c-7.16-4.54-16.82-4.61-25-4.78a132.89,132.89,0,0,0-29.5,2.84,2.52,2.52,0,0,0-1.5,3.67c4.17,6.76,15.83,6.17,22.79,6.48a123.21,123.21,0,0,0,30.94-2.71c2.74-.59,2.16-5.07-.66-4.92l-2.7.15c-3.2.17-3.22,5.17,0,5l2.7-.15-.66-4.91a117.47,117.47,0,0,1-24.08,2.65q-5.55,0-11.07-.49c-3.34-.31-10.83-.2-12.94-3.62L224,194.15a126.26,126.26,0,0,1,26.29-2.68c7.86,0,17.53-.23,24.38,4.12l.6-4.57c-9.23,2.24-18.75,1.36-28.1.5-8.51-.78-16.9-2.19-23.95-7.37l-.59,4.57c17-4.7,37.17-1.21,54,2.78l.66-4.91c-17.34-.89-34.71-1.9-51.51-6.65-3.11-.87-4.43,3.95-1.33,4.83Z" transform="translate(-44.4 -49.13)"/><path class="cls-4" d="M247.75,195.86c-4.37,5.53,4.11,6.41,7.67,6.62a90.26,90.26,0,0,0,27.05-2.62c2.88-.71,2-4.69-.67-4.91a48.81,48.81,0,0,0-24.13,4.1c-2.48,1.08-.94,4.51,1.26,4.66a81.85,81.85,0,0,0,29-3.15,2.51,2.51,0,0,0-.67-4.91,67.46,67.46,0,0,0-26.65,4.17c-1.77.66-2.76,3.61-.6,4.57,5.74,2.53,11.27.51,17-1l24.1-6.34c2.8-.73,2.1-4.78-.67-4.91a57,57,0,0,0-23.91,4c-2.92,1.16-1.86,5.69,1.33,4.83q20.37-5.5,40.6-11.55a2.52,2.52,0,0,0,0-4.82,10.44,10.44,0,0,0-4-.55c-3.21,0-3.22,5,0,5l2.71.37v-4.82q-20.22,6-40.6,11.54l1.33,4.83a53.49,53.49,0,0,1,22.58-3.81l-.66-4.91L281.55,197c-5.17,1.35-13.76,5.34-19,3l-.6,4.57a63.9,63.9,0,0,1,25.32-4l-.66-4.91a77.64,77.64,0,0,1-27.7,3l1.26,4.66A43.89,43.89,0,0,1,281.8,200l-.66-4.91a85.93,85.93,0,0,1-15.63,2.46c-1.3.07-13.9.55-14,.05l-.65,2.43.47-.59c2-2.5-1.54-6.06-3.54-3.53Z" transform="translate(-44.4 -49.13)"/><path class="cls-4" d="M331,179.69a95.14,95.14,0,0,0-50.18,11.46c-2.48,1.33-.8,5.42,1.92,4.56l32.72-10.3c9.52-3,19.09-5.91,27.55-11.34a2.51,2.51,0,0,0-1.92-4.57,176.15,176.15,0,0,0-51,21.49c-2.32,1.44-.86,5.53,1.92,4.57A161.58,161.58,0,0,0,350.77,160c2.35-2.22-1.16-5.68-3.54-3.53a43.28,43.28,0,0,0-9,11.33c-1.42,2.56,1.8,4.84,3.92,3a92.41,92.41,0,0,0,8.52-8.27L347.15,159l-8.5,10c-2,2.42,1.2,5.82,3.53,3.53a94.62,94.62,0,0,0,13.52-16.61l-4.32-2.53A122,122,0,0,1,334.69,175c-2.26,2.33,1.14,5.67,3.53,3.54a117.8,117.8,0,0,0,22.36-26.84L356,149.76a47.61,47.61,0,0,1-18.92,25.41c-2.65,1.79-.15,6.13,2.53,4.32a53.11,53.11,0,0,0,21.21-28.41c.86-2.75-3.12-4.3-4.57-1.92A113.28,113.28,0,0,1,334.69,175l3.53,3.54a128.24,128.24,0,0,0,17.48-22.58c1.69-2.77-2.58-5.23-4.32-2.53A88.82,88.82,0,0,1,338.65,169l3.53,3.53,8.5-10c2.06-2.42-1.34-5.94-3.53-3.53a96.29,96.29,0,0,1-8.52,8.26l3.93,3A39.23,39.23,0,0,1,350.77,160l-3.54-3.53a155.56,155.56,0,0,1-56.52,34.32l1.93,4.57a171.86,171.86,0,0,1,49.8-21l-1.93-4.57c-8.66,5.56-18.51,8.36-28.23,11.43l-30.85,9.71,1.93,4.57A90.27,90.27,0,0,1,331,184.69c3.21.15,3.21-4.85,0-5Z" transform="translate(-44.4 -49.13)"/><path class="cls-4" d="M343.94,158.88c-10.78,13.94-27.69,19.06-43.95,23.71-3.09.88-1.8,5.55,1.33,4.82a141,141,0,0,0,25.37-8.54c5.77-2.58,14.91-5.62,16.1-12.8a2.56,2.56,0,0,0-2.41-3.16c-3.27-.42-6,.8-9,2q-5.83,2.24-11.6,4.62-10.95,4.55-21.68,9.59c-2.08,1-1.27,3.95.6,4.57,5.67,1.91,12.73-2.64,17.92-4.62l22.31-8.48-2.43-4.18L328.61,176a2.54,2.54,0,0,0,1.77,4.27,20.4,20.4,0,0,0,11.05-2.85c2.86-1.65.35-5.58-2.52-4.32a9.5,9.5,0,0,0-5.22,5.66c-.65,1.55.95,3.14,2.41,3.16a6,6,0,0,0,4.63-1.82c2-1.86-.2-4.51-2.43-4.18a3.94,3.94,0,0,0-2.42,1c-2.54,1.91-.06,6.25,2.52,4.31l1.23-.51-2.44-4.17-1.09.35,2.41,3.17a4.45,4.45,0,0,1,2.92-2.67l-2.52-4.32a15.57,15.57,0,0,1-8.53,2.17l1.77,4.26L340,169.9c1.4-1.7.16-5.16-2.43-4.17L319,172.8,310.63,176c-2.77,1.05-7.6,3.86-10.61,2.85l.6,4.57q10.14-4.77,20.48-9.09c2.95-1.22,5.93-2.42,8.91-3.58,3.23-1.26,6.85-3.27,10.37-2.82L338,164.74c-1,6-13.28,9.71-18.19,11.67A138.31,138.31,0,0,1,300,182.59l1.33,4.82c17-4.86,34.88-10.42,46.15-25,1.95-2.51-1.56-6.08-3.53-3.54Z" transform="translate(-44.4 -49.13)"/><path class="cls-4" d="M330.34,175a218.14,218.14,0,0,1-52.89,17.45l1.93,4.57a84.44,84.44,0,0,1,17.54-5.28l-2.43-4.18c-4.3,3.33-10.63,1.25-15.17,4.86-1.85,1.47-.17,4.15,1.76,4.27A35.83,35.83,0,0,0,309.14,186l-4.27-1.77a51.43,51.43,0,0,1-3.28,16.87l4.91.67a13.94,13.94,0,0,0-2.8-9.49c-1.39-1.87-4.69-1.42-4.66,1.26a70.69,70.69,0,0,0,3.89,22.65c1,3,5.88,1.73,4.82-1.33A66.43,66.43,0,0,1,304,193.57l-4.66,1.26a9.87,9.87,0,0,1,2.12,7c-.16,3,4,3.15,4.91.66a55.52,55.52,0,0,0,3.46-18.2,2.53,2.53,0,0,0-4.27-1.77,30.94,30.94,0,0,1-24.52,9.24l1.77,4.27c2.51-2,6.07-1.56,9-2.12a13.12,13.12,0,0,0,6.14-2.74c2.17-1.69-.27-4.59-2.43-4.18a89.73,89.73,0,0,0-18.74,5.78c-2.75,1.18-.67,5.07,1.93,4.57a222.72,222.72,0,0,0,54.08-17.95c2.9-1.39.37-5.71-2.52-4.32Z" transform="translate(-44.4 -49.13)"/><path class="cls-4" d="M301.5,201.18a102.87,102.87,0,0,0,5.09,16c1.2,2.93,6,1.65,4.82-1.33a104.18,104.18,0,0,1-5.09-16c-.72-3.14-5.54-1.81-4.82,1.32Z" transform="translate(-44.4 -49.13)"/><path class="cls-4" d="M302.93,208.69a128.66,128.66,0,0,0,5,19c1.06,3,5.89,1.72,4.83-1.33a127.47,127.47,0,0,1-5-19c-.59-3.16-5.41-1.82-4.82,1.33Z" transform="translate(-44.4 -49.13)"/><path class="cls-4" d="M312.8,185.43c-6.73,3.7-16.6,3.78-24.08,4.82a214.08,214.08,0,0,1-27.35,2.2v5c9.73-.32,19.45-.68,29.14-1.63a2.5,2.5,0,0,0,0-5,46.43,46.43,0,0,0-22,4.18c-2.42,1.09-1,4.57,1.26,4.66a143.59,143.59,0,0,0,22.71-.81c3.16-.36,3.2-5.36,0-5a143.59,143.59,0,0,1-22.71.81l1.26,4.66a41.14,41.14,0,0,1,19.48-3.5v-5c-9.69,1-19.41,1.31-29.14,1.63-3.2.11-3.23,5,0,5a223.94,223.94,0,0,0,28.68-2.38c8.11-1.13,18-1.31,25.28-5.32,2.82-1.55.3-5.87-2.53-4.32Z" transform="translate(-44.4 -49.13)"/><path class="cls-4" d="M295.85,180a75.65,75.65,0,0,0,.29,16c.4,3.15,5.4,3.19,5,0a75.65,75.65,0,0,1-.29-16c.28-3.21-4.72-3.19-5,0Z" transform="translate(-44.4 -49.13)"/></g><g id="레이어_24" data-name="레이어 24"><path class="cls-2" d="M306,115.72c-10.74-2.19-23.38-.4-26.78,11.72-2.86,10.19-1.54,21,9.46,25.12,10.34,3.85,22.81-.95,27.26-11.16,4-9.25-.5-20-9.3-24.46-2.86-1.44-5.4,2.87-2.52,4.32,6.1,3.09,9.86,10,7.77,16.79-2.59,8.37-12.43,12.61-20.55,10.14-8.86-2.69-9.44-10.72-7.49-18.57,2.45-9.86,12.24-10.82,20.82-9.08,3.14.64,4.49-4.17,1.33-4.82Z" transform="translate(-44.4 -49.13)"/><path class="cls-2" d="M293.45,129.61v-.33a2.5,2.5,0,0,0-5,0v.33a2.5,2.5,0,0,0,5,0Z" transform="translate(-44.4 -49.13)"/><path class="cls-2" d="M301.28,128.78c3.22,0,3.22-5,0-5s-3.22,5,0,5Z" transform="translate(-44.4 -49.13)"/><path class="cls-2" d="M285.72,137.63c.86,12.28,24.14,7.44,22.58-5-.4-3.15-5.4-3.19-5,0a5.83,5.83,0,0,1-4.35,6.47c-1.69.53-8,1.33-8.23-1.48-.22-3.19-5.23-3.21-5,0Z" transform="translate(-44.4 -49.13)"/><path class="cls-2" d="M302.31,218.65a87.23,87.23,0,0,0-20.46-15.52c-2.82-1.55-5.35,2.76-2.52,4.31a83.24,83.24,0,0,1,19.45,14.74c2.25,2.3,5.79-1.23,3.53-3.53Z" transform="translate(-44.4 -49.13)"/><path class="cls-2" d="M136.26,96.07c9.83-23.44,40.74-31.6,63.11-36.38A253.55,253.55,0,0,1,278,55.56c24.05,2.5,48.31,9.74,66.82,25.91C364.09,98.29,366,125,358.51,148.14c-7.35,22.75-24.33,43.41-49.58,45.22a2.54,2.54,0,0,0-2.41,3.16,169.45,169.45,0,0,1,3.07,39.25l4.66-1.27a93.7,93.7,0,0,0-8.15-11.63c-2-2.49-5.55,1.06-3.53,3.54A84.41,84.41,0,0,1,309.93,237a2.52,2.52,0,0,0,4.66-1.26,175.42,175.42,0,0,0-3.25-40.58l-2.41,3.17c23.32-1.67,40.88-17.73,50.31-38.38,9.87-21.59,12.8-48.94-.35-69.85-13.95-22.19-42.48-33.3-67.17-37.67-27.67-4.89-56.79-4.15-84.42.62-27,4.67-64.05,13.48-75.87,41.67-1.24,3,3.6,4.25,4.83,1.32Z" transform="translate(-44.4 -49.13)"/><path class="cls-2" d="M145.55,170.69c-14.81-20.57-20.8-47.94-10.51-71.83,1.25-2.92-3-5.47-4.32-2.52-11,25.53-5.45,54.7,10.52,76.88,1.86,2.59,6.2.09,4.31-2.53Z" transform="translate(-44.4 -49.13)"/><path class="cls-2" d="M167.84,190.8a72.09,72.09,0,0,1-20.91-18.31c-1.91-2.54-6.26-.05-4.32,2.52a78.35,78.35,0,0,0,22.71,20.11c2.77,1.65,5.28-2.67,2.52-4.32Z" transform="translate(-44.4 -49.13)"/><path class="cls-2" d="M277.9,201.57c-36.47,9.82-75.63,8.4-109.12-10.23-2.81-1.56-5.34,2.76-2.52,4.32,34.65,19.27,75.21,20.89,113,10.73,3.1-.84,1.79-5.66-1.33-4.82Z" transform="translate(-44.4 -49.13)"/><path class="cls-2" d="M278.83,207h.78a2.5,2.5,0,0,0,0-5h-.78a2.5,2.5,0,0,0,0,5Z" transform="translate(-44.4 -49.13)"/><path class="cls-2" d="M296,219.69a28.73,28.73,0,0,1,7,7c1.81,2.63,6.15.13,4.31-2.52a35.13,35.13,0,0,0-8.75-8.83c-2.63-1.87-5.13,2.47-2.52,4.31Z" transform="translate(-44.4 -49.13)"/><path class="cls-2" d="M150.74,114.84l.32,15.56c.07,3.24-.15,6.6,3.29,8.07,3.78,1.62,9.3,1.55,13.3,1.65a81.82,81.82,0,0,0,15.55-1.2,2.54,2.54,0,0,0,1.84-2.41c.3-5,.8-10,.87-15,0-3.26-.32-7.3-2.74-9.79-2.6-2.67-8.3-1.49-11.75-1.46-5.72,0-11.43.4-17.13,1-3.18.31-3.21,5.31,0,5,3.8-.38,7.6-.67,11.41-.82,3.55-.14,9-1.11,12.4-.07,5.34,1.66,2.21,16.67,1.94,21.16l1.83-2.42a75.15,75.15,0,0,1-12.35,1.06c-3.4,0-8.28.27-11.43-.93s-2.06-5.34-2.12-8.4l-.23-11c-.07-3.21-5.07-3.23-5,0Z" transform="translate(-44.4 -49.13)"/><path class="cls-2" d="M151.64,135c-3.74,3.15-13.51,10.14-9,16,3.88,5.06,14.66,3.8,20.08,3.9l15.9.24c2.82,0,6,.46,8.7-.75,7.3-3.32.48-11.84-1.95-16.2-1.56-2.81-5.88-.29-4.31,2.52,1,1.75,2.75,3.94,3.25,5.86,1.25,1.24,1.07,2.44-.56,3.6-1.05,0-2.1,0-3.14,0-5.3,0-10.6-.16-15.9-.24-4.31-.07-11.34.93-15.32-.9-5.24-2.42,3.35-8.43,5.79-10.5s-1.09-5.6-3.53-3.53Z" transform="translate(-44.4 -49.13)"/><path class="cls-2" d="M217.69,114.5a50.45,50.45,0,0,0-12.15-.52c-3.21.3-7.54.52-10.35,2.21-5.17,3.11-1.5,8.92,3.21,9.74,4.13.73,8.7.36,12.86.25,2.87-.08,6.85.28,9-2.12,3.66-4.1-.79-8.77-5.3-7.93-3.16.59-1.82,5.41,1.33,4.82-1.63.31-18.22.79-18.17-.54,0-.71,7.6-1.44,8.24-1.49a43.47,43.47,0,0,1,10,.41c3.15.47,4.51-4.35,1.33-4.83Z" transform="translate(-44.4 -49.13)"/><path class="cls-2" d="M191.19,120.33a136,136,0,0,0,4.28,20.75c1.33,4.51,1.82,9.06,6.95,9.9,4.67.75,12,1.91,14.26-3.25,3.15-7.35,4.54-16.07,6.08-23.87.62-3.15-4.2-4.49-4.82-1.33-1,5-2.1,9.89-3.41,14.77-.53,2-.89,5.65-2.11,7.29-1.77,2.38-4.57,1.85-7.11,1.61-3.3-.31-3.29-.88-4.24-3.88-.72-2.27-1.38-4.57-2-6.87a127.62,127.62,0,0,1-2.91-15.12c-.42-3.15-5.42-3.19-5,0Z" transform="translate(-44.4 -49.13)"/><path class="cls-2" d="M191.36,118.86v1a2.5,2.5,0,0,0,5,0v-1a2.5,2.5,0,0,0-5,0Z" transform="translate(-44.4 -49.13)"/><path class="cls-2" d="M216.72,119.06a3.38,3.38,0,0,1,1.65,3.66c-.18,1.34,1.28,2.5,2.5,2.5a2.57,2.57,0,0,0,2.5-2.5,8.2,8.2,0,0,0-4.12-8c-2.81-1.59-5.33,2.73-2.53,4.32Z" transform="translate(-44.4 -49.13)"/><path class="cls-2" d="M222.29,126.56c1.43-1.51,2-1,2.42.81s.88,4,0,5.64c-1.41,2.62-5.32,2.94-7.93,3.2-3.15.31-3.25,5.21,0,5l1.21-.08c3.19-.21,3.22-5.21,0-5l-1.21.08v5c6.88-.68,14-3.33,13.36-11.58-.22-2.78-.7-6.88-3.32-8.49s-6.07-.21-8,1.88c-2.21,2.34,1.32,5.88,3.53,3.54Z" transform="translate(-44.4 -49.13)"/><path class="cls-2" d="M208.44,117.65c-.66-1.81-1.48-3.64-2-5.49s.09-1.49,1.13-2.81c1.87-2.36,1.2-5.38.13-7.94-1.22-2.92-6.06-1.64-4.82,1.33.75,1.78,1.25,2.78-.14,4.25a5.16,5.16,0,0,0-1.8,2.68c-.58,2.84,1.74,6.72,2.68,9.31,1.09,3,5.93,1.71,4.82-1.33Z" transform="translate(-44.4 -49.13)"/><path class="cls-2" d="M215.05,114.59c-.74-1.2-2.18-2.88-2.44-4.27l-.25,1.93.19-.44L211.06,113a21.42,21.42,0,0,0,2.46-.69,5.21,5.21,0,0,0,2.07-7.07c-1.47-2.87-5.78-.34-4.32,2.52.08.16-.81.16-1.05.22a3.09,3.09,0,0,0-2.3,2.08c-.84,2.46,1.61,5.13,2.81,7.09,1.67,2.74,6,.23,4.32-2.52Z" transform="translate(-44.4 -49.13)"/><path class="cls-2" d="M202.77,122.89a23.16,23.16,0,0,1,12.17.17c3.1.87,4.42-4,1.32-4.82a28.44,28.44,0,0,0-14.82-.17c-3.12.79-1.8,5.61,1.33,4.82Z" transform="translate(-44.4 -49.13)"/><path class="cls-2" d="M202.05,124.25h7.72c3.22,0,3.22-5,0-5h-7.72c-3.21,0-3.22,5,0,5Z" transform="translate(-44.4 -49.13)"/><path class="cls-2" d="M204.55,117.17a9.7,9.7,0,0,0-8.83,1.13,2.56,2.56,0,0,0-.89,3.42,2.52,2.52,0,0,0,3.42.9,5,5,0,0,1,5-.63,2.52,2.52,0,0,0,3.08-1.74,2.57,2.57,0,0,0-1.75-3.08Z" transform="translate(-44.4 -49.13)"/><path class="cls-2" d="M201.74,119l-3.36-.59a2.5,2.5,0,0,0-1.33,4.82l3.36.59a2.57,2.57,0,0,0,3.08-1.75,2.53,2.53,0,0,0-1.75-3.07Z" transform="translate(-44.4 -49.13)"/><path class="cls-2" d="M207,122.11a14.61,14.61,0,0,0,8.25.67,2.5,2.5,0,1,0-1.33-4.82,9.84,9.84,0,0,1-5.59-.67,2.52,2.52,0,0,0-3.07,1.75,2.56,2.56,0,0,0,1.74,3.07Z" transform="translate(-44.4 -49.13)"/><path class="cls-2" d="M212.19,135.45l4.81-.59a2.58,2.58,0,0,0,2.5-2.5,2.51,2.51,0,0,0-2.5-2.5l-4.81.59a2.59,2.59,0,0,0-2.5,2.5,2.52,2.52,0,0,0,2.5,2.5Z" transform="translate(-44.4 -49.13)"/><path class="cls-2" d="M211.22,141.14a12.28,12.28,0,0,0,6.07-1.33,2.5,2.5,0,0,0-2.52-4.32,7,7,0,0,1-3.55.65,2.5,2.5,0,0,0,0,5Z" transform="translate(-44.4 -49.13)"/><path class="cls-2" d="M211.89,146.9l2.89-.51a2.51,2.51,0,0,0,1.75-3.07,2.58,2.58,0,0,0-3.08-1.75l-2.88.51a2.51,2.51,0,0,0-1.75,3.08,2.56,2.56,0,0,0,3.07,1.74Z" transform="translate(-44.4 -49.13)"/><path class="cls-2" d="M257.13,129.15c.32-2.2.74-5.58,3-6.72,3.16-1.58,4.69.66,5.61,3a9.79,9.79,0,0,1-1.57,9.76c-4.26,5.33-10.54,9.66-15.63,14.17l3.54,3.53a8.73,8.73,0,0,0,1.77-3c1.13-3-3.7-4.32-4.82-1.33l-.49.83a2.5,2.5,0,0,0,3.54,3.53c8.55-7.57,23.19-15.92,18.26-29.37-1.4-3.83-4.59-7.09-8.95-6.73-5.72.48-8.36,6-9.1,11-.47,3.14,4.35,4.5,4.82,1.33Z" transform="translate(-44.4 -49.13)"/><path class="cls-2" d="M256.05,126.87c-.93-4.74-2.63-10.27-7.84-11.85-4.85-1.46-9.09,2-11.2,6.11-2.42,4.68-3.69,10.17-1.23,15.07,2.81,5.6,9.08,8.73,11.21,14.7,1.07,3,5.9,1.71,4.82-1.33-1.93-5.39-6.09-8.43-9.61-12.71-3.29-4-3.46-8.68-.87-13.21,5-8.79,8.95-.29,9.9,4.55.62,3.15,5.44,1.82,4.82-1.33Z" transform="translate(-44.4 -49.13)"/><path class="cls-2" d="M174.94,117.25a56.08,56.08,0,0,0-8.3.12c-1.89.17-4.69.06-6.21,1.38s-1.24,3.4-1.24,5.22-.45,4.51.92,6.14c1.11,1.31,2.87,1.37,4.44,1.54a56.73,56.73,0,0,0,8.72.61c5-.26,5.33-6,5.45-9.9.16-5.1-5.8-4.68-9.58-4.44-3.46.21-8.16,2.56-7,6.82.89,3.24,7.85,3.77,10.29,2.1,3.68-2.51.59-6.83-2.93-7.1-3.19-.24-10.23,2.63-6.32,6.72,2.8,2.92,10.4,2,10.82-2.46.26-2.77-4.48-3.45-4.91-.66-.26,1.64-.79,3,.14,4.59s2.17,1.55,3.73,1.94c3.12.77,4.45-4.05,1.33-4.82-.68-.17-1.36-.29-2-.48l1.49,1.15c.05-.35.1-.7.16-1L169,124l0,.54,1.24-2.16a3.47,3.47,0,0,1-2.26.6c-1.38-.39-1.73-.39-1.06,0l.25,1.92c0-.24,1.9.2,1.9-.67l.73-1.77c-.34.45-3.51-.09-3.86-.25l1.15,1.49c-.33-1.16,7.49-.67,8.33-.39l-1.49-1.15q-.3-1.06-.21.75c-.07.87-.17,1.75-.3,2.62-.3,1.87-.12,1.85-2,1.66-1.52-.15-3-.19-4.56-.32l-2.28-.22c-1.3-.4-1.41-.17-.35.69-.38-1.39.37-3.1,0-4.5.21-1.49,0-1.51-.74-.06.87-.15,1.75-.27,2.63-.36a55.79,55.79,0,0,1,8.86-.17c3.22.17,3.21-4.83,0-5Z" transform="translate(-44.4 -49.13)"/><path class="cls-2" d="M175.7,118.32l-8.12-.46c-2.25-.13-4.68-.58-6.89-.16a2.48,2.48,0,0,0-1.75,1.74c-.75,2.46-.28,5.68-.25,8.24,0,1.61,0,3.24,1.48,4.23,1.93,1.27,5.45,1,7.66,1.18a19.73,19.73,0,0,0,6.94-.33c5-1.44,3.77-6.75,3.67-10.94,0-1.6,0-3.36-1.62-4.3-1.95-1.13-5.08.37-7,.87-3.12.81-1.8,5.63,1.33,4.82a20,20,0,0,1,4.41-1L173.4,121c-.25-.35,0,.46,0,.87,0,.94,0,1.88,0,2.82a10,10,0,0,1,0,2.26c-.29,1.19.75,1.07-1.36,1.3a25.44,25.44,0,0,1-10-.86l1.49,1.15c.17.76.2.49.1-.81v-2.35c0-1.36-.33-3.25.07-4.56L162,122.52c2-.38,4.66.29,6.72.4l7,.4c3.21.19,3.2-4.81,0-5Z" transform="translate(-44.4 -49.13)"/><path class="cls-2" d="M155.69,146l2,.26a2.51,2.51,0,0,0,1.77-.73,2.57,2.57,0,0,0,.73-1.77,2.53,2.53,0,0,0-.73-1.77,2.93,2.93,0,0,0-1.77-.73l-2-.26a2.44,2.44,0,0,0-1.76.73,2.54,2.54,0,0,0-.74,1.77,2.49,2.49,0,0,0,.74,1.76,3,3,0,0,0,1.76.74Z" transform="translate(-44.4 -49.13)"/><path class="cls-2" d="M164.45,146.2h3.25a2.5,2.5,0,0,0,0-5h-3.25a2.5,2.5,0,0,0,0,5Z" transform="translate(-44.4 -49.13)"/><path class="cls-2" d="M174.2,146.2h2.5a2.5,2.5,0,0,0,0-5h-2.5a2.5,2.5,0,0,0,0,5Z" transform="translate(-44.4 -49.13)"/><path class="cls-2" d="M260.33,104.79a25.22,25.22,0,0,0-.39,4.91,2.5,2.5,0,0,0,5,0,18.43,18.43,0,0,1,.21-3.58A2.58,2.58,0,0,0,263.4,103a2.52,2.52,0,0,0-3.07,1.75Z" transform="translate(-44.4 -49.13)"/><path class="cls-2" d="M270.17,105.67a16,16,0,0,0-2.65,3.76,2.5,2.5,0,0,0,4.32,2.52,14.52,14.52,0,0,1,.94-1.62L273,110c.21-.31-.24.26,0,0s.43-.5.66-.74a2.5,2.5,0,0,0-3.54-3.54Z" transform="translate(-44.4 -49.13)"/><path class="cls-2" d="M278,111.49l-5.47,2.3a2.59,2.59,0,0,0-1.75,3.08,2.51,2.51,0,0,0,3.08,1.74l5.47-2.3a2.58,2.58,0,0,0,1.75-3.08,2.51,2.51,0,0,0-3.08-1.74Z" transform="translate(-44.4 -49.13)"/><path class="cls-2" d="M335.87,110.62q-5.14,12.3-9.79,24.79c-.61,1.66.94,3,2.41,3.17,2.2.2,5.75.9,7.85-.15,2.27-1.12,2.92-3.86,3.94-6,2.63-5.64,6.21-11.41,6.83-17.7a2.43,2.43,0,0,0-1.23-2.16,35.6,35.6,0,0,0-5.59-2.36c-3.07-1-4.38,3.83-1.33,4.82a17.36,17.36,0,0,1,4.39,1.86l-1.24-2.16c-.47,4.73-3.4,9.28-5.38,13.53-.5,1.07-1.71,5.3-2.69,5.78s-4.4-.32-5.55-.42l2.41,3.16q4.65-12.5,9.79-24.79c1.24-3-3.6-4.26-4.82-1.33Z" transform="translate(-44.4 -49.13)"/><path class="cls-2" d="M337.68,113.89c-1.75,5.85-3.55,11.61-6.69,16.89l4.32,2.52,9.12-16.17-4.31-2.52-9.32,16.7a2.55,2.55,0,0,0,.39,3,4.27,4.27,0,0,0,2.72,1.1c3.21.23,3.19-4.77,0-5l.82.37.39,3,9.31-16.71c1.57-2.81-2.73-5.33-4.31-2.52L331,130.78c-1.58,2.8,2.67,5.29,4.32,2.52,3.35-5.63,5.32-11.83,7.19-18.08.92-3.09-3.9-4.41-4.82-1.33Z" transform="translate(-44.4 -49.13)"/><path class="cls-2" d="M330,143c-2.94-2-6.62.49-7.21,3.61s.07,7,3.57,7.7a6.65,6.65,0,0,0,7.51-4.19,6,6,0,0,0-3.57-7.63,5.79,5.79,0,0,0-7.24,3.33,7.89,7.89,0,0,0-.89,4.53c.38,1.67,1.87,2.52,3.41,2.92,3.2.83,6.94-.48,7.73-4a4.91,4.91,0,0,0-5-5.92c-3.28.05-6.32,3.08-5.51,6.46a5.34,5.34,0,0,0,7.59,3.44c2.86-1.49.33-5.81-2.52-4.32.3-.16-.22-.22-.2-.1,0-.24.35-.37.64-.48,0,0,.35-.06.28,0s.07-.13-.07-.08c-.05-.4-.08-.46-.07-.19s0,.19,0,.16l0,0c-.55.17-1.54.41-1.93-.07l.64,1.1c.17.6.11-.2.19-.48a5.54,5.54,0,0,1,.26-.88c.14-.33.32-.73.69-.83.78-.2,1.15.72.94,1.33a1.4,1.4,0,0,1-.85.83c.1,0-1,.28-.89.12s.22.59.33.37a5.65,5.65,0,0,0-.11-1.27c0-.33.07-.69.05-1,0-.6.35.16-.21-.22a2.54,2.54,0,0,0,3.42-.9A2.56,2.56,0,0,0,330,143Z" transform="translate(-44.4 -49.13)"/><path class="cls-2" d="M254.45,132.7h.25a2.5,2.5,0,1,0,0-5h-.25a2.5,2.5,0,0,0,0,5Z" transform="translate(-44.4 -49.13)"/><path class="cls-2" d="M246.37,117.23q-4.69,8.85-9.19,17.83a2.5,2.5,0,0,0,4.32,2.52l.56-.9c1.72-2.73-2.6-5.24-4.32-2.52l-.56.9,4.32,2.52q4.49-9,9.18-17.83c1.51-2.84-2.81-5.37-4.31-2.52Z" transform="translate(-44.4 -49.13)"/><path class="cls-2" d="M250,122.85a114.93,114.93,0,0,1-8.1,18.26c-1.55,2.82,2.76,5.34,4.32,2.52a123.14,123.14,0,0,0,8.6-19.45c1-3.05-3.78-4.36-4.82-1.33Z" transform="translate(-44.4 -49.13)"/><path class="cls-2" d="M261.39,119.23q-6.3,13-13.17,25.8c-1.52,2.84,2.79,5.36,4.32,2.53q6.87-12.76,13.16-25.81c1.4-2.88-2.91-5.42-4.31-2.52Z" transform="translate(-44.4 -49.13)"/><path class="cls-2" d="M266.35,126.21a141,141,0,0,1-8.09,15.21c-1.68,2.75,2.64,5.26,4.32,2.52a140.05,140.05,0,0,0,8.09-15.21c1.32-2.9-3-5.45-4.32-2.52Z" transform="translate(-44.4 -49.13)"/></g></svg>